<svg xmlns="http://www.w3.org/2000/svg" viewBox="0 0 122.03 127"><defs><style>.cls-1{fill:#373435;}.cls-2,.cls-3,.cls-4{fill:none;stroke:#000;stroke-width:0.25px;}.cls-2{stroke-miterlimit:10;}.cls-3,.cls-4{stroke-linecap:round;stroke-linejoin:round;}.cls-3{stroke-dasharray:8.31 8.31 8.31 8.31;}</style></defs><g id="Layer_2" data-name="Layer 2"><g id="Layer_1-2" data-name="Layer 1"><path class="cls-1" d="M94.31,4.44a.34.34,0,0,0,.29-.13A.48.48,0,0,0,94.7,4V2.63a.39.39,0,0,0-.1-.29.32.32,0,0,0-.29-.11.33.33,0,0,0-.29.11.46.46,0,0,0-.1.31V4a.5.5,0,0,0,.1.33.35.35,0,0,0,.29.13m0,1.08a1.59,1.59,0,0,1-1.16-.41A1.47,1.47,0,0,1,92.74,4V2.62a1.42,1.42,0,0,1,.41-1.08,1.67,1.67,0,0,1,1.16-.38,1.72,1.72,0,0,1,1.18.38,1.46,1.46,0,0,1,.4,1.09V4a1.44,1.44,0,0,1-.42,1.09A1.56,1.56,0,0,1,94.31,5.52ZM89.4,9.8A.7.7,0,0,0,90,9.56a1.06,1.06,0,0,0,.19-.66V3.43A1,1,0,0,0,90,2.79a.7.7,0,0,0-.56-.24.67.67,0,0,0-.56.24.9.9,0,0,0-.21.64V8.9a1,1,0,0,0,.21.66.67.67,0,0,0,.56.24m0,1.44a2.18,2.18,0,0,1-1.67-.6,2.45,2.45,0,0,1-.6-1.74V3.43a2.38,2.38,0,0,1,.6-1.72,2.61,2.61,0,0,1,3.33,0,2.38,2.38,0,0,1,.59,1.72V8.9a2.44,2.44,0,0,1-.59,1.74A2.18,2.18,0,0,1,89.4,11.24Zm-5.81-6a.71.71,0,0,0,.39-.1.58.58,0,0,0,.24-.27,1,1,0,0,0,.08-.42V3.32a1.08,1.08,0,0,0-.08-.42A.7.7,0,0,0,84,2.63a.71.71,0,0,0-.39-.1.64.64,0,0,0-.37.1A.75.75,0,0,0,83,2.9a.94.94,0,0,0-.08.43V4.44a1,1,0,0,0,.08.42.64.64,0,0,0,.22.26.72.72,0,0,0,.37.09m0,4.59A.81.81,0,0,0,84,9.7a.51.51,0,0,0,.28-.26A.8.8,0,0,0,84.4,9V7.35A.67.67,0,0,0,84.3,7,.53.53,0,0,0,84,6.72a.92.92,0,0,0-.43-.08.86.86,0,0,0-.41.08.57.57,0,0,0-.26.25.78.78,0,0,0-.09.39V9a.86.86,0,0,0,.09.41.53.53,0,0,0,.26.25A.76.76,0,0,0,83.59,9.8Zm0,1.44A2.58,2.58,0,0,1,82.38,11a1.78,1.78,0,0,1-.77-.74,2.39,2.39,0,0,1-.26-1.18V7.49a1.71,1.71,0,0,1,.29-1,1.86,1.86,0,0,1,.83-.67,1.71,1.71,0,0,1-.74-.56,1.32,1.32,0,0,1-.27-.78V3.15A2.28,2.28,0,0,1,81.71,2a1.7,1.7,0,0,1,.73-.7,2.54,2.54,0,0,1,1.15-.23,2.6,2.6,0,0,1,1.17.23,1.75,1.75,0,0,1,.75.7,2.36,2.36,0,0,1,.25,1.11V4.51a1.31,1.31,0,0,1-.27.8,1.75,1.75,0,0,1-.76.54,2,2,0,0,1,.86.67,1.71,1.71,0,0,1,.29,1V9.07a2.39,2.39,0,0,1-.28,1.18,1.65,1.65,0,0,1-.78.74A2.76,2.76,0,0,1,83.59,11.24Zm-3.5-.1h-1.5V2.84L77.2,3.6V2l1.32-.82h1.57Zm-7.9.1A2.49,2.49,0,0,1,71,11a1.89,1.89,0,0,1-.74-.77A2.64,2.64,0,0,1,70,9V6.33A3,3,0,0,1,70.25,5,1.82,1.82,0,0,1,71,4.2a2.29,2.29,0,0,1,1.14-.28,2.48,2.48,0,0,1,1.18.27,1.7,1.7,0,0,1,.74.78,2.46,2.46,0,0,1,.27,1.23v2H71.13V7h1.75V6.17a1,1,0,0,0-.2-.67.69.69,0,0,0-.55-.24.59.59,0,0,0-.51.26,1.37,1.37,0,0,0-.18.72V9a.94.94,0,0,0,.19.62.82.82,0,0,0,1.08,0,.61.61,0,0,0,.18-.49V9.06h1.44V9.2a2,2,0,0,1-.56,1.51,2.22,2.22,0,0,1-1.58.53m-6.34,0a1.23,1.23,0,0,1-.8-.24,1.4,1.4,0,0,1-.5-.69,2.8,2.8,0,0,1-.18-1.09V6a2.84,2.84,0,0,1,.18-1.11,1.43,1.43,0,0,1,.5-.7,1.23,1.23,0,0,1,.8-.25,1.31,1.31,0,0,1,.87.34,2.43,2.43,0,0,1,.64.93l-.14,1a1.28,1.28,0,0,0-.08-.47.67.67,0,0,0-.24-.28.61.61,0,0,0-.36-.11.6.6,0,0,0-.51.24.94.94,0,0,0-.18.62V9.09a.86.86,0,0,0,.18.58.74.74,0,0,0,.87.12.67.67,0,0,0,.24-.28,1.25,1.25,0,0,0,.08-.45l.1,1a1.93,1.93,0,0,1-.57.91,1.3,1.3,0,0,1-.9.33M67.22,1.2h1.5v9.94h-1.5ZM59.09,9.86a.54.54,0,0,0,.43-.19.77.77,0,0,0,.16-.5V6a.72.72,0,0,0-.16-.49.57.57,0,0,0-.43-.18.59.59,0,0,0-.44.18.69.69,0,0,0-.16.49V9.17a.76.76,0,0,0,.15.5.57.57,0,0,0,.45.19m0,1.38A2.29,2.29,0,0,1,58,11a1.51,1.51,0,0,1-.72-.67A2.3,2.3,0,0,1,57,9.25V5.88a2.12,2.12,0,0,1,.25-1A1.56,1.56,0,0,1,58,4.16a2.41,2.41,0,0,1,1.12-.24,2.44,2.44,0,0,1,1.12.24,1.49,1.49,0,0,1,.71.67,2,2,0,0,1,.24,1V9.27a2.05,2.05,0,0,1-.24,1.06,1.53,1.53,0,0,1-.71.69A2.57,2.57,0,0,1,59.09,11.24ZM55.41,9.13a.68.68,0,0,0,.12.42.46.46,0,0,0,.37.14h.29v1.45H55.6a1.57,1.57,0,0,1-1.24-.49,2,2,0,0,1-.45-1.38V1.2h1.5Zm-5.72.14a.59.59,0,0,0,.66.66.65.65,0,0,0,.49-.19.73.73,0,0,0,.16-.5l.09.78a2.15,2.15,0,0,1-.5.93,1.23,1.23,0,0,1-.83.29,1.35,1.35,0,0,1-1.16-.49,2.34,2.34,0,0,1-.39-1.45V4.05h1.48ZM51,4.05h1.49v7.09H51Zm-7.07,7.21a1.25,1.25,0,0,1-.8-.24,1.41,1.41,0,0,1-.51-.69,3,3,0,0,1-.18-1.09V6a3,3,0,0,1,.18-1.11,1.44,1.44,0,0,1,.51-.7,1.32,1.32,0,0,1,1.66.09,2.35,2.35,0,0,1,.65.93l-.14.94a1.08,1.08,0,0,0-.09-.46A.56.56,0,0,0,45,5.38a.73.73,0,0,0-.89.12,1,1,0,0,0-.18.63v3a.88.88,0,0,0,.18.6.67.67,0,0,0,.52.21.73.73,0,0,0,.37-.1.56.56,0,0,0,.23-.29,1,1,0,0,0,.09-.45l.1.95a1.94,1.94,0,0,1-.58.91,1.28,1.28,0,0,1-.89.33M44.58,14A2.17,2.17,0,0,1,43,13.5a2,2,0,0,1-.55-1.5v-.25H44V12a.61.61,0,0,0,.18.49.64.64,0,0,0,.49.18.71.71,0,0,0,.49-.17A.69.69,0,0,0,45.3,12v-8h1.5v8a2.2,2.2,0,0,1-.27,1.09,1.6,1.6,0,0,1-.76.69A2.77,2.77,0,0,1,44.58,14ZM39.66,6.17a1.05,1.05,0,0,0-.17-.65A.63.63,0,0,0,39,5.29a.64.64,0,0,0-.54.23,1.12,1.12,0,0,0-.16.67l-.14-.93a2.06,2.06,0,0,1,.63-1,1.41,1.41,0,0,1,.93-.34,1.34,1.34,0,0,1,1.1.49,2.17,2.17,0,0,1,.37,1.37v5.36H39.66ZM36.74,4.05h1.52v7.09H36.74ZM35.11,2.14l-.87.79-1-1.22-1,1.22-.85-.79L33.22,0Zm-2.48,9.1a1.56,1.56,0,0,1-1.26-.5,2.2,2.2,0,0,1-.44-1.5,2.44,2.44,0,0,1,.58-1.76,2.2,2.2,0,0,1,1.69-.61h.72L34,8.13h-.75a.77.77,0,0,0-.67.28,1.26,1.26,0,0,0-.23.83.82.82,0,0,0,.17.55A.66.66,0,0,0,33,10a.86.86,0,0,0,.64-.22A1,1,0,0,0,33.87,9l.14.62a2.6,2.6,0,0,1-.16.87,1.21,1.21,0,0,1-.48.54A1.42,1.42,0,0,1,32.63,11.24ZM33.87,6a.77.77,0,0,0-.18-.56.7.7,0,0,0-.53-.19.6.6,0,0,0-.48.19.87.87,0,0,0-.16.56H31.07a2.06,2.06,0,0,1,.56-1.54,2.11,2.11,0,0,1,1.56-.55,2.44,2.44,0,0,1,1.15.25,1.68,1.68,0,0,1,.72.7A2.37,2.37,0,0,1,35.32,6v5.13H33.87Z"/><path class="cls-1" d="M4.24,57.13H4.8v3.16a1,1,0,0,1-.41-.07,2,2,0,0,1-.63-.39A4.59,4.59,0,0,1,3,59.06,6.86,6.86,0,0,0,2,58a1.26,1.26,0,0,0-.71-.28A.76.76,0,0,0,.73,58a.92.92,0,0,0-.24.65.93.93,0,0,0,.25.69.94.94,0,0,0,.7.26l-.06.6a1.49,1.49,0,0,1-1-.47A1.64,1.64,0,0,1,0,58.62a1.55,1.55,0,0,1,.38-1.09,1.28,1.28,0,0,1,1-.4,1.38,1.38,0,0,1,.56.12,2.27,2.27,0,0,1,.58.39,8.92,8.92,0,0,1,.85.9,8.43,8.43,0,0,0,.6.68,1.46,1.46,0,0,0,.32.25Zm-1.8,6.18A3.05,3.05,0,0,0,4,63a.79.79,0,0,0,0-1.36,3.05,3.05,0,0,0-1.57-.28,3,3,0,0,0-1.57.28.8.8,0,0,0-.38.68A.75.75,0,0,0,.83,63a3,3,0,0,0,1.61.3m0,.6a4.63,4.63,0,0,1-1.37-.17,1.69,1.69,0,0,1-.79-.52A1.31,1.31,0,0,1,0,62.36a1.48,1.48,0,0,1,.15-.68A1.47,1.47,0,0,1,.6,61.2a2.45,2.45,0,0,1,.71-.29,4.82,4.82,0,0,1,1.13-.11A4.22,4.22,0,0,1,3.8,61a1.68,1.68,0,0,1,.8.51,1.37,1.37,0,0,1,.28.87,1.3,1.3,0,0,1-.5,1.08A3.18,3.18,0,0,1,2.44,63.91Zm1.8.64H4.8v3.16a1,1,0,0,1-.41-.07,2,2,0,0,1-.63-.39A4.59,4.59,0,0,1,3,66.48a6.86,6.86,0,0,0-1-1,1.26,1.26,0,0,0-.71-.28.76.76,0,0,0-.58.25.92.92,0,0,0-.24.65.93.93,0,0,0,.25.69.94.94,0,0,0,.7.26l-.06.6a1.49,1.49,0,0,1-1-.47A1.62,1.62,0,0,1,0,66,1.55,1.55,0,0,1,.38,65a1.28,1.28,0,0,1,1-.4,1.38,1.38,0,0,1,.56.12,2.27,2.27,0,0,1,.58.39,8.92,8.92,0,0,1,.85.9,6.91,6.91,0,0,0,.6.68,1.46,1.46,0,0,0,.32.25Z"/><path class="cls-1" d="M76.67,62.5a.57.57,0,0,0,.41.14.58.58,0,0,0,.51-.59.53.53,0,0,0-.2-.38.51.51,0,0,0-.39-.14.6.6,0,0,0-.38.19.54.54,0,0,0-.13.4.53.53,0,0,0,.18.38m-.23.27a.91.91,0,0,1-.31-.62.89.89,0,0,1,.22-.65.86.86,0,0,1,.62-.32.91.91,0,0,1,.75,1.5.82.82,0,0,1-.62.3A.84.84,0,0,1,76.44,62.77ZM76,67.44l.36-.49a1.17,1.17,0,0,0,.72.2.9.9,0,0,0,.57-.31.93.93,0,0,0,.23-.75,1.29,1.29,0,0,0-.45-.78,1.13,1.13,0,0,0-.79-.3,1,1,0,0,0-.7.36,1.17,1.17,0,0,0-.24.47,1,1,0,0,0,0,.49l-.42.37-1.56-2L75.27,63l.43.36-1.25,1.44.81,1a1.52,1.52,0,0,1,.36-.87,1.42,1.42,0,0,1,1-.52,1.49,1.49,0,0,1,1.12.41,1.69,1.69,0,0,1,.6,1A1.49,1.49,0,0,1,78,67.15a1.55,1.55,0,0,1-1,.57,1.43,1.43,0,0,1-1-.28m-2.29-.36a1.21,1.21,0,0,0-.78-.32.85.85,0,0,0-.64.3.88.88,0,0,0-.21.72,1.17,1.17,0,0,0,.43.76,1.06,1.06,0,0,0,.74.28.94.94,0,0,0,.89-1,1.15,1.15,0,0,0-.43-.72m0,3.2.33-.46a1,1,0,0,0,.61.17.71.71,0,0,0,.48-.28.82.82,0,0,0,.21-.44.9.9,0,0,0,0-.46,1.83,1.83,0,0,0-.28-.53,3.09,3.09,0,0,0-.48-.54l-.09-.07a1.42,1.42,0,0,1-.27,1.27,1.35,1.35,0,0,1-1,.47A1.54,1.54,0,0,1,72.08,69a1.63,1.63,0,0,1-.61-1.09,1.47,1.47,0,0,1,.37-1.1,1.42,1.42,0,0,1,.75-.47,1.52,1.52,0,0,1,.92,0,3.49,3.49,0,0,1,1.15.73,4.38,4.38,0,0,1,1,1.1,1.69,1.69,0,0,1,.24,1,1.56,1.56,0,0,1-.39.88,1.28,1.28,0,0,1-1.77.24Z"/><path class="cls-1" d="M87.42,35.57l.62,0a1.08,1.08,0,0,0,.31.67.84.84,0,0,0,.61.23,1,1,0,0,0,.72-.32,1.21,1.21,0,0,0,.28-.85,1.08,1.08,0,0,0-.28-.79,1,1,0,0,0-.73-.29,1,1,0,0,0-.51.13,1.07,1.07,0,0,0-.36.34l-.55-.08L88,32.1h2.37v.57h-1.9L88.2,34a1.57,1.57,0,0,1,.9-.3,1.44,1.44,0,0,1,1.06.44,1.52,1.52,0,0,1,.42,1.11,1.74,1.74,0,0,1-.37,1.12A1.51,1.51,0,0,1,89,36.9a1.53,1.53,0,0,1-1.07-.37,1.38,1.38,0,0,1-.47-1m-.63.69v.56H83.63a1.13,1.13,0,0,1,.06-.41,2.45,2.45,0,0,1,.4-.63,6.07,6.07,0,0,1,.76-.72,7.67,7.67,0,0,0,1.06-1,1.24,1.24,0,0,0,.27-.71.78.78,0,0,0-.25-.59.88.88,0,0,0-.65-.24.91.91,0,0,0-.68.26.93.93,0,0,0-.26.7l-.6-.06a1.47,1.47,0,0,1,.47-1A1.55,1.55,0,0,1,85.29,32a1.5,1.5,0,0,1,1.09.39,1.23,1.23,0,0,1,.4.94,1.34,1.34,0,0,1-.12.56,2.07,2.07,0,0,1-.39.59,8,8,0,0,1-.9.84,8.43,8.43,0,0,0-.68.6,1.67,1.67,0,0,0-.24.32Zm-3.71,0v.56H79.92a1.13,1.13,0,0,1,.06-.41,2.45,2.45,0,0,1,.4-.63,6.07,6.07,0,0,1,.76-.72,7.67,7.67,0,0,0,1.06-1,1.24,1.24,0,0,0,.27-.71.78.78,0,0,0-.25-.59.88.88,0,0,0-.65-.24.91.91,0,0,0-.68.26.93.93,0,0,0-.26.7l-.6-.06a1.47,1.47,0,0,1,.47-1A1.55,1.55,0,0,1,81.58,32a1.5,1.5,0,0,1,1.09.39,1.23,1.23,0,0,1,.4.94,1.34,1.34,0,0,1-.12.56,2.07,2.07,0,0,1-.39.59,8,8,0,0,1-.9.84,8.43,8.43,0,0,0-.68.6,1.67,1.67,0,0,0-.24.32Z"/><path class="cls-1" d="M64.9,26a3,3,0,0,0,.27,1.56.83.83,0,0,0,.68.39.81.81,0,0,0,.68-.39A3,3,0,0,0,66.81,26a3,3,0,0,0-.28-1.57.81.81,0,0,0-.68-.39.78.78,0,0,0-.65.34A3.09,3.09,0,0,0,64.9,26m-.6,0a4.63,4.63,0,0,1,.17-1.37A1.64,1.64,0,0,1,65,23.8a1.31,1.31,0,0,1,.86-.29,1.48,1.48,0,0,1,.68.16,1.37,1.37,0,0,1,.48.45,2.5,2.5,0,0,1,.29.7A4.86,4.86,0,0,1,67.41,26a4.15,4.15,0,0,1-.18,1.35,1.63,1.63,0,0,1-.51.8,1.46,1.46,0,0,1-2-.21A3.2,3.2,0,0,1,64.3,26Zm-3.71,1.1.61,0a1.14,1.14,0,0,0,.32.67.81.81,0,0,0,.6.23,1,1,0,0,0,.72-.32,1.17,1.17,0,0,0,.29-.85,1.08,1.08,0,0,0-.28-.79,1,1,0,0,0-.73-.29,1,1,0,0,0-.52.13,1.14,1.14,0,0,0-.35.34l-.55-.08.46-2.45h2.36v.56h-1.9l-.25,1.28a1.57,1.57,0,0,1,.9-.3,1.42,1.42,0,0,1,1,.44,1.48,1.48,0,0,1,.43,1.11,1.8,1.8,0,0,1-.37,1.12,1.68,1.68,0,0,1-2.32.21,1.38,1.38,0,0,1-.47-1m-1.84-.43V24.48l-1.49,2.15Zm0,1.68V27.17H56.68v-.54l2.18-3.1h.48v3.1H60v.54h-.65v1.14Z"/><path class="cls-1" d="M63.18,106.67v0s0,0,0,0c.19-.75,0,0,0,0S63.18,106.66,63.18,106.67Zm5.89,8.1v-1l0-.31,0-.34-.07-.31-.06-.31-.07-.31-.09-.31-.11-.28-.11-.31-.13-.29-.13-.29-.16-.26-.15-.29-.18-.27-.18-.26-.2-.25-.2-.24L67,109l-.22-.22-.24-.23-.22-.22-.25-.2-.26-.2-.27-.17-.26-.16-.27-.17-.29-.14-.28-.13-.29-.13-.31-.11-.29-.11-.31-.09-.31-.07-.31-.07"/><path class="cls-2" d="M63.18,106.67v0s0,0,0,0c.19-.75,0,0,0,0S63.18,106.66,63.18,106.67Zm5.89,8.1v-1l0-.31,0-.34-.07-.31-.06-.31-.07-.31-.09-.31-.11-.28-.11-.31-.13-.29-.13-.29-.16-.26-.15-.29-.18-.27-.18-.26-.2-.25-.2-.24L67,109l-.22-.22-.24-.23-.22-.22-.25-.2-.26-.2-.27-.17-.26-.16-.27-.17-.29-.14-.28-.13-.29-.13-.31-.11-.29-.11-.31-.09-.31-.07-.31-.07"/><line class="cls-3" x1="61.14" y1="113.29" x2="61.14" y2="105.97"/><line class="cls-3" x1="60.1" y1="114.33" x2="52.78" y2="114.33"/><line class="cls-3" x1="61.14" y1="115.38" x2="61.14" y2="122.7"/><line class="cls-3" x1="62.19" y1="114.33" x2="69.51" y2="114.33"/><path class="cls-4" d="M61.12,114.35h.53m-.53,0v.53m0-.53h-.51m.51,0v-.53"/><line class="cls-3" x1="109.91" y1="50.33" x2="67.53" y2="54.03"/><line class="cls-3" x1="61.14" y1="85.66" x2="61.14" y2="41.32"/><line class="cls-3" x1="109.92" y1="114.33" x2="67.52" y2="114.33"/><path class="cls-1" d="M108.2,40.52h-.58V34.44h1.17v6.08Zm0-2.71H61.11v-.66H108.2ZM61.11,40.52h-.58V34.44h1.16v6.08Z"/><path class="cls-1" d="M14,25.92h.58V32H13.45V25.92Zm0,2.71H108.2v.66H14Zm94.17-2.71h.59V32h-1.17V25.92Z"/><path class="cls-1" d="M2.39,84.42v-.58H8.46V85H2.39Zm2.71,0V42.19h.65V84.42ZM2.39,42.19v-.58H8.46v1.16H2.39Z"/><path class="cls-1" d="M53,77.15l0,.07-.11.22-.09.24-.08.22-.09.25Zm-.4,1,.17.48.23.51m1.5-3h-.91m0,0-.31.49-.28.51m.59,3h.91m-1.5-1,0,.07.27.46.28.47m2-4H54.48m0,4h1.09m-1.09-4,.22,0,.22,0,.22.09.2.11.18.13.18.18.15.2.11.22m-3,0,.13-.22.15-.2.16-.18.2-.13.2-.11.22-.09.22,0,.22,0m-1.5,3-.09-.24-.07-.24,0-.25,0-.26,0-.27,0-.26.07-.25.09-.22m1.5,3-.22,0L54,80.07,53.82,80l-.2-.11-.2-.15-.16-.18-.15-.18L53,79.14m1.5,1,.22,0,.22-.05.22-.09.2-.11.18-.15.18-.18.15-.18.11-.22m.49-3,1,2m-1-2h-.88m.39,1,0-.07-.2-.46-.17-.47m0,4,.08-.24.09-.25.11-.26.11-.25m.49,1h-.88m1.88-2-1,2m1-2h-.89m-.6,1,0-.06.13-.25.13-.22.14-.24.15-.22m0,0-.31-.49L56,77.15m0,0,.11.22.07.25,0,.26,0,.27,0,.26,0,.25-.07.24-.11.24m18.48-2v-1m0,0h-.17m.17,4v-1m-.17,1h.17m0-1v-2m-.17-1,.11.49.06.51m-1.94-1h1.77m-1.77,2v-2m1.94,1v.07l0,.22,0,.24,0,.22-.06.25m0,0,.11.48.06.51m-1.94-1h1.77m-1.77,2v-2m0,2h1.77m.17-1v.07l-.06.46-.11.47m-19-4.1-.09.11m1-.11.31,0,.4,0,.39,0m-2-.11h.93m-.93,0,.2,0,.28,0,.29,0m1.26,0,.07,0,.35,0,.31,0,.14,0m-2.3,3.87.39,0,.45,0,.2,0m-.45-4h.14l.44,0,.2,0m-.75,0,.06,0,.22.11.18.15.18.16.15.2.13.19.12.23m-1,2.74.17-.09.2-.13.2-.16.16-.17.15-.2m-.46.93h.92m0,0L58,80l.18-.25.18-.22.15-.24v0m0,0,.07-.09.11-.2.09-.2,0-.09,0-.11,0-.09.07-.15m-2.1,1.86L57,80l.11-.25.12-.22.13-.24,0,0m0,0,.27-.4.31-.38.13-.15m-.71.93.11-.22.09-.25.07-.24,0-.27v-.24l0-.26-.05-.27-.08-.24m.55,1.06H59m0,0,0-.13,0-.12,0-.13,0-.13-.07-.2,0-.13-.07-.14,0-.06v0m0,0-.2-.42-.24-.45-.11-.17m-.93,0h.93m-.64,1-.16-.42-.09-.45,0-.17m.84,2.1-.29-.51-.26-.53v0m11.55,2.81v0m2.37,0v0h0m0-4h0V77M71.19,76l.11,0,.11,0,0,0M69.09,77v-.82m.26-.11-.13,0-.11,0,0,0M71.46,79v1.15M71.19,80l.11,0,.11,0,0,.05m-2.37,0V79m.26,1-.13,0-.11,0,0,.05M71.19,76H69.35m0,0-.19.45-.07.48m2.1-.93.2.45.07.48m0,0,0,.4-.15.4-.07.16m.27-1v2m-2.37,0V77m0,0v.2l0,.2.05.2.09.2,0,.07,0,.09m1.84,0H69.35m0,0-.19.48-.07.53v0m0,0,0,.44.14.44.08.16m1.84,0H69.35m2.11-1,0,.44-.15.44-.07.16m0-2.08.2.48.07.53v0m-2.37,5.44H53.17m0-40.77v0l0,0v-.16l0-.11V43.2l0-.16v-.33l0-.06v-.07m15.74,0,0,.35,0,.31,0,.22v.16m-.07-1H53.26M69.09,76.69l0,0v0l0,.11L69,77l0,.15,0,.2,0,.22v.25l0,.24v.24l0,.22v.25l0,.2,0,.2,0,.15,0,.13,0,.09v.07M53.29,42.18H68.58m0,0H69M13.18,55.44v-.13l0-.2,0-.27,0-.31,0-.4,0-.44,0-.49.06-.53.05-.55,0-.6.05-.62.06-.62.05-.6.06-.59,0-.6,0-.55,0-.51,0-.47.05-.42,0-.35,0-.29,0-.22,0-.16v-.06M54,57.54l0,.05-.35.53-.29.42-.2.26-.09.14v0m55.16-13.45h0v.06l0,.16,0,.22,0,.29,0,.35,0,.42.05.47,0,.51,0,.55,0,.6.07.59,0,.6,0,.62.07.62,0,.6,0,.55.07.53,0,.49,0,.44,0,.4,0,.31,0,.27,0,.2v.13M69.2,58.91h0l-.09-.11L69,58.6l-.23-.28-.26-.4-.22-.38m3.21,21.94h1m-3.46,0h0m0-2.66h0m3.46,0h-1m0,3.32H69.09m0,0,2.37-4m0,0-2.37,0Zm-2.37,0v0Zm0,8.28V80.14m0-4V58.78m0-9.91V43.62m-15.92,0v5.23m0,30.63v4.91m0-25.63v18M69,42.58v-.4m-15.69,0v.4M13.18,55.44l39.88,3.5m.11-10.07L14,45.46m94.18,0L69.09,48.87m.11,10.07,39.88-3.5"/><path class="cls-4" d="M53,77.15l0,.07-.11.22-.09.24-.08.22-.09.25Zm-.4,1,.17.48.23.51m1.5-3h-.91m0,0-.31.49-.28.51m.59,3h.91m-1.5-1,0,.07.27.46.28.47m2-4H54.48m0,4h1.09m-1.09-4,.22,0,.22,0,.22.09.2.11.18.13.18.18.15.2.11.22m-3,0,.13-.22.15-.2.16-.18.2-.13.2-.11.22-.09.22,0,.22,0m-1.5,3-.09-.24-.07-.24,0-.25,0-.26,0-.27,0-.26.07-.25.09-.22m1.5,3-.22,0L54,80.07,53.82,80l-.2-.11-.2-.15-.16-.18-.15-.18L53,79.14m1.5,1,.22,0,.22-.05.22-.09.2-.11.18-.15.18-.18.15-.18.11-.22m.49-3,1,2m-1-2h-.88m.39,1,0-.07-.2-.46-.17-.47m0,4,.08-.24.09-.25.11-.26.11-.25m.49,1h-.88m1.88-2-1,2m1-2h-.89m-.6,1,0-.06.13-.25.13-.22.14-.24.15-.22m0,0-.31-.49L56,77.15m0,0,.11.22.07.25,0,.26,0,.27,0,.26,0,.25-.07.24-.11.24m18.48-2v-1m0,0h-.17m.17,4v-1m-.17,1h.17m0-1v-2m-.17-1,.11.49.06.51m-1.94-1h1.77m-1.77,2v-2m1.94,1v.07l0,.22,0,.24,0,.22-.06.25m0,0,.11.48.06.51m-1.94-1h1.77m-1.77,2v-2m0,2h1.77m.17-1v.07l-.06.46-.11.47m-19-4.1-.09.11m1-.11.31,0,.4,0,.39,0m-2-.11h.93m-.93,0,.2,0,.28,0,.29,0m1.26,0,.07,0,.35,0,.31,0,.14,0m-2.3,3.87.39,0,.45,0,.2,0m-.45-4h.14l.44,0,.2,0m-.75,0,.06,0,.22.11.18.15.18.16.15.2.13.19.12.23m-1,2.74.17-.09.2-.13.2-.16.16-.17.15-.2m-.46.93h.92m0,0L58,80l.18-.25.18-.22.15-.24v0m0,0,.07-.09.11-.2.09-.2,0-.09,0-.11,0-.09.07-.15m-2.1,1.86L57,80l.11-.25.12-.22.13-.24,0,0m0,0,.27-.4.31-.38.13-.15m-.71.93.11-.22.09-.25.07-.24,0-.27v-.24l0-.26-.05-.27-.08-.24m.55,1.06H59m0,0,0-.13,0-.12,0-.13,0-.13-.07-.2,0-.13-.07-.14,0-.06v0m0,0-.2-.42-.24-.45-.11-.17m-.93,0h.93m-.64,1-.16-.42-.09-.45,0-.17m.84,2.1-.29-.51-.26-.53v0m11.55,2.81v0m2.37,0v0h0m0-4h0V77M71.19,76l.11,0,.11,0,0,0M69.09,77v-.82m.26-.11-.13,0-.11,0,0,0M71.46,79v1.15M71.19,80l.11,0,.11,0,0,.05m-2.37,0V79m.26,1-.13,0-.11,0,0,.05M71.19,76H69.35m0,0-.19.45-.07.48m2.1-.93.2.45.07.48m0,0,0,.4-.15.4-.07.16m.27-1v2m-2.37,0V77m0,0v.2l0,.2.05.2.09.2,0,.07,0,.09m1.84,0H69.35m0,0-.19.48-.07.53v0m0,0,0,.44.14.44.08.16m1.84,0H69.35m2.11-1,0,.44-.15.44-.07.16m0-2.08.2.48.07.53v0m-2.37,5.44H53.17m0-40.77v0l0,0v-.16l0-.11V43.2l0-.16v-.33l0-.06v-.07m15.74,0,0,.35,0,.31,0,.22v.16m-.07-1H53.26M69.09,76.69l0,0v0l0,.11L69,77l0,.15,0,.2,0,.22v.25l0,.24v.24l0,.22v.25l0,.2,0,.2,0,.15,0,.13,0,.09v.07M53.29,42.18H68.58m0,0H69M13.18,55.44v-.13l0-.2,0-.27,0-.31,0-.4,0-.44,0-.49.06-.53.05-.55,0-.6.05-.62.06-.62.05-.6.06-.59,0-.6,0-.55,0-.51,0-.47.05-.42,0-.35,0-.29,0-.22,0-.16v-.06M54,57.54l0,.05-.35.53-.29.42-.2.26-.09.14v0m55.16-13.45h0v.06l0,.16,0,.22,0,.29,0,.35,0,.42.05.47,0,.51,0,.55,0,.6.07.59,0,.6,0,.62.07.62,0,.6,0,.55.07.53,0,.49,0,.44,0,.4,0,.31,0,.27,0,.2v.13M69.2,58.91h0l-.09-.11L69,58.6l-.23-.28-.26-.4-.22-.38m3.21,21.94h1m-3.46,0h0m0-2.66h0m3.46,0h-1m0,3.32H69.09m0,0,2.37-4m0,0-2.37,0Zm-2.37,0v0Zm0,8.28V80.14m0-4V58.78m0-9.91V43.62m-15.92,0v5.23m0,30.63v4.91m0-25.63v18M69,42.58v-.4m-15.69,0v.4M13.18,55.44l39.88,3.5m.11-10.07L14,45.46m94.18,0L69.09,48.87m.11,10.07,39.88-3.5"/><path class="cls-1" d="M53,103.68l-.09.07-.07,0,0,0h0Zm3.23-1.86,0,0,0,0-.07,0L56,102m1.49,1.4-1,.57m1-.57-.89-1.53M56,102l0,0,.13,0,.13,0h.14l.15,0m-1,.58.17-.25L56,102m0,0-.11.09-.15.09-.18.09-.18.11-.2.11-.22.13-.22.11-.22.14m0,0-.22.13-.22.13-.22.13-.2.11-.2.12-.16.08-.15.09-.13.07m1.48,1.39-1,.58m-.88-1.53.17-.24.23-.2m.48,2-.88-1.53m.4-.44,0,0,.27-.09.28,0m0,0,.31-.29.36-.29.11-.07.13-.08m0,2.25-.89-1.52m2.88.37-2,1.15m2-1.15-.88-1.52m-1.09.42.4-.2.42-.16.27-.06M56,126.74l.11.05.07,0,0,0,0,0m-3.46-2h0l0,0,.07,0L53,125m.48-2,1,.58m-1-.58-.88,1.53m.4.44,0,0-.11-.09-.09-.08-.08-.14-.09-.11m1,.58-.31-.05L53,125m0,0,.13.07.15.09.16.09.2.11.2.11.22.13.22.14.22.13m0-2.26,2,1.15m-2-1.15-.89,1.53m.91.73-.38-.27-.35-.29-.18-.17m2,1.15-.43-.13-.42-.16-.11-.07-.13-.06m0,0,.22.11.22.13.22.13.2.11.18.12.18.08.15.09.11.09m.6.13-.31,0-.29-.09m1.49-1.39-.89,1.52m-.11-2.1,1,.58m-1-.58-.88,1.53m.39.44,0,0-.2-.2-.17-.22m0-17.93-.09,0,0,0,0,0m-1.19-2.06h0l0,0,.07,0,.06,0m4.5.16h0l0,0-.07,0-.08,0-.14.06m.47-.55-.07.11m-1.57-1.61.11-.07.09,0,.07,0,0,0m.4.09-.13,0m-3.83,2.3.9,1.59m0,0,.09,0,.07,0h.07l.06,0,.11,0h.07l0,0,.05,0m-1.46-1.59.09-.27.17-.2m1.42-.82-.22.14-.22.13-.2.11L55,106l-.18.11-.15.09-.14.07-.11.06m0,0,.2-.06.25,0,.11,0m2,1.26-.22.13-.2.14-.22.11-.18.11-.17.11-.16.09-.13.06-.11.07m0,0,.15-.13.09-.22.05-.11m-.07-2.42-.07.05-.35.26-.31.34-.13.15m0,0,.93,1.62m1.1-.36-.06,0-.4.17-.45.09-.19,0m-.07-2.42.22-.13.22-.13.22-.11.2-.14.2-.11.2-.11.16-.09.15-.08m-.46.57-.31,0-.4.11-.4.17m2.74,1.15-.13.09-.18.09-.17.11-.2.11-.2.14-.22.13-.22.11-.25.13m.86-.79-.19.24-.29.31-.38.24m-.06-2.39.92,1.6m0,0h.38l.33-.09v0m0,0,.14-.06.08-.11.09-.11.09-.16,0,0,.05-.07m-.93-1.59.93,1.59m-1.64-1.5.27-.09.31,0,.13,0m-1.17.66.19-.33.25-.24h0m1.35,17.55.07,0,.06,0,0,0m-1.2,2h0l0,0-.05,0-.08,0m-2.11-4h0l0,0,.06,0,.09,0,.11.07m-.71-.09.14,0m-.6,2.17-.13-.07-.09,0-.07,0,0,0h0m-.11-.37,0,.11m3.92,2.17.93-1.6m0,0,0-.06,0-.09,0-.07,0,0-.07-.09,0,0-.07,0,0,0m-.64,2.06-.29.06-.26-.06m-1.4-.82.22.13.2.13.22.11.18.11.18.11.15.09.13.07.12.07m0,0-.16-.14-.09-.22,0-.11m.06-2.41.23.13.22.13.22.12.17.11.18.11.16.08.13.07.11.07m0,0-.2-.07-.24,0-.11,0m-2,1.24.07,0,.4.18.44.09.2,0m0,0,.93-1.59m-.87-.82.07,0,.35.27L58,122l.14.18m-2,1.24-.24-.14-.22-.11-.23-.13-.19-.13-.2-.11-.18-.11-.18-.09-.13-.09m.71.11.2.24.28.31.38.25m-.4-3,.16.09.15.09.2.11.2.11.2.13.22.14.22.11.22.13m-1.1-.33.31,0,.4.11.39.18m-2,1.26.93-1.59m0,0-.18-.34-.27-.22,0,0m0,0-.11,0-.15-.05-.14,0H55.1l-.07,0m-.9,1.6.9-1.6m-.46,2.15-.22-.18-.18-.26,0-.11m1.15.66H54.9l-.33-.09v0m-1.31-9.16.14-.78.22-.77.28-.73.36-.69.44-.66.49-.62.55-.56.62-.51.64-.44.69-.37.73-.31.75-.23.78-.15.79-.09h.78l.8.09.77.15.75.23.73.31.69.37.64.44.62.51.56.56.48.62.42.66.38.69.29.73.22.77.13.78m0,2.08-.13.77-.22.75-.29.76-.38.68-.42.67-.48.62-.56.55-.62.51-.64.44-.69.38-.73.31-.75.22-.77.15-.8.09h-.78L60,122.2l-.78-.15-.75-.22-.73-.31-.69-.38-.64-.44-.62-.51-.55-.55L54.7,119l-.44-.67-.36-.68-.28-.76-.22-.75-.14-.77m0-2.08h0v.13l0,.09v.11l0,.15v.31l0,.18v.18l0,.17v.31l0,.14v.11l0,.09v.11h0m0,0h.09m0-2.08h-.09M69,115.39l0,0,0-.17,0-.27v-1l0-.28,0-.23,0-.08m0,0h-.09m0,2.08H69m-.42,1.41.2-.73.13-.73.07-.75,0-.77-.09-.76-.16-.73-.24-.73-.29-.68-.35-.67-.45-.64L66.9,109l-.53-.54-.6-.46-.62-.42-.67-.38-.7-.29-.73-.22-.73-.13-.76-.09h-.77l-.75.07-.73.13-.73.22-.71.29-.67.35-.64.4-.6.47-.55.53-.49.57-.42.62-.37.67-.31.68-.25.73-.15.73-.11.76,0,.75,0,.77.13.73.2.76.27.71.33.66.4.66.44.6.51.55.57.51.62.45.65.39.68.31.71.27.73.18.75.11.76,0,.77,0,.75-.11.73-.18.71-.24.69-.31.66-.4.62-.42.56-.51.53-.55.46-.6.4-.64.33-.69ZM13.2,114.35v.59l0,.58,0,.55,0,.53,0,.49,0,.47,0,.37,0,.36,0,.26,0,.2,0,.13.06.07.05,0,0-.09.07-.18,0-.24,0-.31,0-.35,0-.43.05-.48,0-.51,0-.55v-2.9l0-.54,0-.5-.05-.49,0-.42,0-.38,0-.29,0-.24-.07-.18,0-.08-.05,0-.06.07,0,.13,0,.2,0,.27,0,.33,0,.4,0,.46,0,.49,0,.53,0,.55,0,.58Zm0,0v1.21l0,.6,0,.56,0,.53,0,.48,0,.42,0,.38.06.31.05.24,0,.16.05.11.06,0,.05-.07.06-.13,0-.2,0-.29,0-.33,0-.4.05-.46,0-.51,0-.53,0-.58,0-.59v-1.86l0-.6,0-.58,0-.53,0-.51-.05-.46,0-.4,0-.33,0-.29,0-.2-.06-.13-.05-.07-.06,0-.05.09,0,.18-.05.24-.06.31,0,.38,0,.42,0,.49,0,.53,0,.55,0,.6v1.22Zm95.9,0v-1.22l0-.6,0-.55,0-.53,0-.49,0-.42,0-.38-.07-.31,0-.24,0-.18-.07-.09,0,0,0,.07-.07.13,0,.2,0,.29,0,.33-.05.4,0,.46,0,.51,0,.53,0,.58,0,.6v1.86l0,.59,0,.58,0,.53,0,.51,0,.46.05.4,0,.33,0,.29,0,.2.07.13,0,.07,0,0,.07-.11,0-.16,0-.24.07-.31,0-.38,0-.42,0-.48,0-.53,0-.56,0-.6v-1.21Zm0,0v-.6l0-.58,0-.55,0-.53,0-.49,0-.46,0-.4,0-.33,0-.27,0-.2-.06-.13,0-.07,0,0-.05.08-.06.18-.05.24,0,.29,0,.38,0,.42,0,.49,0,.5,0,.54v2.9l0,.55,0,.51,0,.48,0,.43,0,.35,0,.31.05.24.06.18.05.09,0,0,0-.07.06-.13,0-.2,0-.26,0-.36,0-.37,0-.47,0-.49,0-.53,0-.55,0-.58ZM52.75,103.81l-.17.31m4-2.3h-.35m.9,2.92-.5-.91m1.74,3.06,0-.09M56,108.13l0,.09m-1.75-3.06.51.91m1.4,20.8h.35m-4-2.3.17.31m2.06-2.26-.51.91m1.75-3,0,.09m2.3,1.32,0-.08m-1.74,3,.5-.91m-1.94-15.53.26,0m-1.19-2.06-.09.24m4.74-.17.08-.25m-1-1.77-.27,0M59,122.47l-.08-.24m-1.2,2,.27,0m-2.53-4-.26,0m-1,1.77.09.24m4.25-15.45L13.6,119.37m0,0L55,109.32ZM55,109.32h0Zm53.69,0H67.3m0,10.05h41.36"/><path class="cls-4" d="M53,103.68l-.09.07-.07,0,0,0h0Zm3.23-1.86,0,0,0,0-.07,0L56,102m1.49,1.4-1,.57m1-.57-.89-1.53M56,102l0,0,.13,0,.13,0h.14l.15,0m-1,.58.17-.25L56,102m0,0-.11.09-.15.09-.18.09-.18.11-.2.11-.22.13-.22.11-.22.14m0,0-.22.13-.22.13-.22.13-.2.11-.2.12-.16.08-.15.09-.13.07m1.48,1.39-1,.58m-.88-1.53.17-.24.23-.2m.48,2-.88-1.53m.4-.44,0,0,.27-.09.28,0m0,0,.31-.29.36-.29.11-.07.13-.08m0,2.25-.89-1.52m2.88.37-2,1.15m2-1.15-.88-1.52m-1.09.42.4-.2.42-.16.27-.06M56,126.74l.11.05.07,0,0,0,0,0m-3.46-2h0l0,0,.07,0L53,125m.48-2,1,.58m-1-.58-.88,1.53m.4.44,0,0-.11-.09-.09-.08-.08-.14-.09-.11m1,.58-.31-.05L53,125m0,0,.13.07.15.09.16.09.2.11.2.11.22.13.22.14.22.13m0-2.26,2,1.15m-2-1.15-.89,1.53m.91.73-.38-.27-.35-.29-.18-.17m2,1.15-.43-.13-.42-.16-.11-.07-.13-.06m0,0,.22.11.22.13.22.13.2.11.18.12.18.08.15.09.11.09m.6.13-.31,0-.29-.09m1.49-1.39-.89,1.52m-.11-2.1,1,.58m-1-.58-.88,1.53m.39.44,0,0-.2-.2-.17-.22m0-17.93-.09,0,0,0,0,0m-1.19-2.06h0l0,0,.07,0,.06,0m4.5.16h0l0,0-.07,0-.08,0-.14.06m.47-.55-.07.11m-1.57-1.61.11-.07.09,0,.07,0,0,0m.4.09-.13,0m-3.83,2.3.9,1.59m0,0,.09,0,.07,0h.07l.06,0,.11,0h.07l0,0,.05,0m-1.46-1.59.09-.27.17-.2m1.42-.82-.22.14-.22.13-.2.11L55,106l-.18.11-.15.09-.14.07-.11.06m0,0,.2-.06.25,0,.11,0m2,1.26-.22.13-.2.14-.22.11-.18.11-.17.11-.16.09-.13.06-.11.07m0,0,.15-.13.09-.22.05-.11m-.07-2.42-.07.05-.35.26-.31.34-.13.15m0,0,.93,1.62m1.1-.36-.06,0-.4.17-.45.09-.19,0m-.07-2.42.22-.13.22-.13.22-.11.2-.14.2-.11.2-.11.16-.09.15-.08m-.46.57-.31,0-.4.11-.4.17m2.74,1.15-.13.09-.18.09-.17.11-.2.11-.2.14-.22.13-.22.11-.25.13m.86-.79-.19.24-.29.31-.38.24m-.06-2.39.92,1.6m0,0h.38l.33-.09v0m0,0,.14-.06.08-.11.09-.11.09-.16,0,0,.05-.07m-.93-1.59.93,1.59m-1.64-1.5.27-.09.31,0,.13,0m-1.17.66.19-.33.25-.24h0m1.35,17.55.07,0,.06,0,0,0m-1.2,2h0l0,0-.05,0-.08,0m-2.11-4h0l0,0,.06,0,.09,0,.11.07m-.71-.09.14,0m-.6,2.17-.13-.07-.09,0-.07,0,0,0h0m-.11-.37,0,.11m3.92,2.17.93-1.6m0,0,0-.06,0-.09,0-.07,0,0-.07-.09,0,0-.07,0,0,0m-.64,2.06-.29.06-.26-.06m-1.4-.82.22.13.2.13.22.11.18.11.18.11.15.09.13.07.12.07m0,0-.16-.14-.09-.22,0-.11m.06-2.41.23.13.22.13.22.12.17.11.18.11.16.08.13.07.11.07m0,0-.2-.07-.24,0-.11,0m-2,1.24.07,0,.4.18.44.09.2,0m0,0,.93-1.59m-.87-.82.07,0,.35.27L58,122l.14.18m-2,1.24-.24-.14-.22-.11-.23-.13-.19-.13-.2-.11-.18-.11-.18-.09-.13-.09m.71.11.2.24.28.31.38.25m-.4-3,.16.09.15.09.2.11.2.11.2.13.22.14.22.11.22.13m-1.1-.33.31,0,.4.11.39.18m-2,1.26.93-1.59m0,0-.18-.34-.27-.22,0,0m0,0-.11,0-.15-.05-.14,0H55.1l-.07,0m-.9,1.6.9-1.6m-.46,2.15-.22-.18-.18-.26,0-.11m1.15.66H54.9l-.33-.09v0m-1.31-9.16.14-.78.22-.77.28-.73.36-.69.44-.66.49-.62.55-.56.62-.51.64-.44.69-.37.73-.31.75-.23.78-.15.79-.09h.78l.8.09.77.15.75.23.73.31.69.37.64.44.62.51.56.56.48.62.42.66.38.69.29.73.22.77.13.78m0,2.08-.13.77-.22.75-.29.76-.38.68-.42.67-.48.62-.56.55-.62.51-.64.44-.69.38-.73.31-.75.22-.77.15-.8.09h-.78L60,122.2l-.78-.15-.75-.22-.73-.31-.69-.38-.64-.44-.62-.51-.55-.55L54.7,119l-.44-.67-.36-.68-.28-.76-.22-.75-.14-.77m0-2.08h0v.13l0,.09v.11l0,.15v.31l0,.18v.18l0,.17v.31l0,.14v.11l0,.09v.11h0m0,0h.09m0-2.08h-.09M69,115.39l0,0,0-.17,0-.27v-1l0-.28,0-.23,0-.08m0,0h-.09m0,2.08H69m-.42,1.41.2-.73.13-.73.07-.75,0-.77-.09-.76-.16-.73-.24-.73-.29-.68-.35-.67-.45-.64L66.9,109l-.53-.54-.6-.46-.62-.42-.67-.38-.7-.29-.73-.22-.73-.13-.76-.09h-.77l-.75.07-.73.13-.73.22-.71.29-.67.35-.64.4-.6.47-.55.53-.49.57-.42.62-.37.67-.31.68-.25.73-.15.73-.11.76,0,.75,0,.77.13.73.2.76.27.71.33.66.4.66.44.6.51.55.57.51.62.45.65.39.68.31.71.27.73.18.75.11.76,0,.77,0,.75-.11.73-.18.71-.24.69-.31.66-.4.62-.42.56-.51.53-.55.46-.6.4-.64.33-.69ZM13.2,114.35v.59l0,.58,0,.55,0,.53,0,.49,0,.47,0,.37,0,.36,0,.26,0,.2,0,.13.06.07.05,0,0-.09.07-.18,0-.24,0-.31,0-.35,0-.43.05-.48,0-.51,0-.55v-2.9l0-.54,0-.5-.05-.49,0-.42,0-.38,0-.29,0-.24-.07-.18,0-.08-.05,0-.06.07,0,.13,0,.2,0,.27,0,.33,0,.4,0,.46,0,.49,0,.53,0,.55,0,.58Zm0,0v1.21l0,.6,0,.56,0,.53,0,.48,0,.42,0,.38.06.31.05.24,0,.16.05.11.06,0,.05-.07.06-.13,0-.2,0-.29,0-.33,0-.4.05-.46,0-.51,0-.53,0-.58,0-.59v-1.86l0-.6,0-.58,0-.53,0-.51-.05-.46,0-.4,0-.33,0-.29,0-.2-.06-.13-.05-.07-.06,0-.05.09,0,.18-.05.24-.06.31,0,.38,0,.42,0,.49,0,.53,0,.55,0,.6v1.22Zm95.9,0v-1.22l0-.6,0-.55,0-.53,0-.49,0-.42,0-.38-.07-.31,0-.24,0-.18-.07-.09,0,0,0,.07-.07.13,0,.2,0,.29,0,.33-.05.4,0,.46,0,.51,0,.53,0,.58,0,.6v1.86l0,.59,0,.58,0,.53,0,.51,0,.46.05.4,0,.33,0,.29,0,.2.07.13,0,.07,0,0,.07-.11,0-.16,0-.24.07-.31,0-.38,0-.42,0-.48,0-.53,0-.56,0-.6v-1.21Zm0,0v-.6l0-.58,0-.55,0-.53,0-.49,0-.46,0-.4,0-.33,0-.27,0-.2-.06-.13,0-.07,0,0-.05.08-.06.18-.05.24,0,.29,0,.38,0,.42,0,.49,0,.5,0,.54v2.9l0,.55,0,.51,0,.48,0,.43,0,.35,0,.31.05.24.06.18.05.09,0,0,0-.07.06-.13,0-.2,0-.26,0-.36,0-.37,0-.47,0-.49,0-.53,0-.55,0-.58ZM52.75,103.81l-.17.31m4-2.3h-.35m.9,2.92-.5-.91m1.74,3.06,0-.09M56,108.13l0,.09m-1.75-3.06.51.91m1.4,20.8h.35m-4-2.3.17.31m2.06-2.26-.51.91m1.75-3,0,.09m2.3,1.32,0-.08m-1.74,3,.5-.91m-1.94-15.53.26,0m-1.19-2.06-.09.24m4.74-.17.08-.25m-1-1.77-.27,0M59,122.47l-.08-.24m-1.2,2,.27,0m-2.53-4-.26,0m-1,1.77.09.24m4.25-15.45L13.6,119.37m0,0L55,109.32ZM55,109.32h0Zm53.69,0H67.3m0,10.05h41.36"/><path class="cls-1" d="M69.49,96.85h-.58V90.78h1.16v6.07Zm0-2.71H52.76v-.65H69.49ZM52.76,96.85h-.58V90.78h1.16v6.07Z"/><path class="cls-1" d="M122,109.67v.58H116v-1.16H122Zm-2.71,0v10h-.65v-10Zm2.71,10v.58H116v-1.16H122Z"/><path class="cls-1" d="M116.57,112.83v-1.18a2,2,0,0,0,0-.43,1,1,0,0,0-.12-.37.91.91,0,0,0-.27-.24.88.88,0,0,0-.41-.09.74.74,0,0,0-.46.14.7.7,0,0,0-.28.38,2.41,2.41,0,0,0-.08.69v1.1Zm-2.21,0v-1a2.7,2.7,0,0,0,0-.6.81.81,0,0,0-.24-.36.74.74,0,0,0-.42-.12.82.82,0,0,0-.42.11.6.6,0,0,0-.25.33,2.39,2.39,0,0,0-.07.72v1Zm2.77.64h-4.78v-1.8a2.16,2.16,0,0,1,.15-.87,1.08,1.08,0,0,1,.45-.52,1.17,1.17,0,0,1,.62-.18,1.08,1.08,0,0,1,.58.16,1.28,1.28,0,0,1,.44.5,1.2,1.2,0,0,1,.43-.66,1.14,1.14,0,0,1,.72-.24,1.46,1.46,0,0,1,.63.14,1.38,1.38,0,0,1,.45.36,1.46,1.46,0,0,1,.23.52,3.31,3.31,0,0,1,.08.77Zm-3.56,1.73,2.71,2.41a1.83,1.83,0,0,0,.28-.46,1.49,1.49,0,0,0,.11-.6,1.54,1.54,0,0,0-.5-1.17,2,2,0,0,0-1.41-.46,2.52,2.52,0,0,0-1.19.28m-.34.26a2.24,2.24,0,0,0-.33.54,1.45,1.45,0,0,0-.09.54,1.56,1.56,0,0,0,.48,1.17,2,2,0,0,0,1.45.46,2.65,2.65,0,0,0,.67-.07,2.55,2.55,0,0,0,.54-.21Zm-.44-.39-.61-.54.27-.32.64.57a3,3,0,0,1,.73-.38,2.92,2.92,0,0,1,.92-.13,2.78,2.78,0,0,1,1.31.3,2,2,0,0,1,.87.83,2.35,2.35,0,0,1,.29,1.13,2.3,2.3,0,0,1-.13.81,2.33,2.33,0,0,1-.37.65l.61.56-.27.32-.65-.58a3.27,3.27,0,0,1-.82.43,2.88,2.88,0,0,1-.83.11,2.78,2.78,0,0,1-1.31-.3,1.92,1.92,0,0,1-.87-.82,2.32,2.32,0,0,1-.3-1.17,2.13,2.13,0,0,1,.12-.76A2.73,2.73,0,0,1,112.79,115.07Z"/><path class="cls-1" d="M64.15,90.42h1.62l-.5-1.33c-.15-.4-.26-.73-.34-1a6.34,6.34,0,0,1-.26.92Zm-1.39,2,1.84-4.77h.69l1.95,4.77h-.72L66,90.93H64l-.52,1.45Zm-1.23-3.56-2.41,2.71a2,2,0,0,0,.46.29,1.64,1.64,0,0,0,.6.1,1.49,1.49,0,0,0,1.16-.5A2,2,0,0,0,61.8,90a2.54,2.54,0,0,0-.27-1.19m-.27-.33a2,2,0,0,0-.53-.34,1.46,1.46,0,0,0-.54-.08,1.55,1.55,0,0,0-1.17.48A2,2,0,0,0,58.55,90a3.21,3.21,0,0,0,.07.67,2.66,2.66,0,0,0,.22.54Zm.4-.45.54-.61.32.28-.57.64a3.18,3.18,0,0,1,.38.72,3,3,0,0,1,.13.92,2.78,2.78,0,0,1-.3,1.31,2,2,0,0,1-.83.87,2.35,2.35,0,0,1-1.13.29,2.62,2.62,0,0,1-.82-.12,3.14,3.14,0,0,1-.65-.38l-.56.62-.32-.28.58-.64a3.15,3.15,0,0,1-.43-.83,2.88,2.88,0,0,1-.11-.83,2.78,2.78,0,0,1,.3-1.31,2,2,0,0,1,.82-.87A2.6,2.6,0,0,1,61,87.64,2.9,2.9,0,0,1,61.66,88Z"/><path class="cls-1" d="M85.59,52.62l0,.58-6.07.26-.05-1.16L85.56,52Zm-2.92.09,0,.51-.25.08,0-.51Zm-.21.62v0h0Zm.23-.14,0,.53-.24.14,0-.53v0Zm0,.53v0Zm0,.07v.53H82.5v-.53l.24-.07Zm0,.53v.51H82.5v-.51Zm0,.51v.53H82.5v-.53Zm0,.53v0Zm0,0,0,.53-.24-.07,0-.54.24,0Zm0,.53h0v0Zm0,0,0,.51-.23-.15,0-.51.24.11Zm-.28.36h0v0Zm.24.14,0,.53-.24-.14,0-.53h0Zm0,.53v0h0Zm0,0-.06.51-.23-.22.06-.51.24.18Zm-.29.3Zm.23.21-.07.53-.23-.21.07-.53h0Zm-.07.53h0v0Zm0,0-.09.51-.22-.28.09-.51.22.25Zm-.09.51h0v0Zm0,0-.11.51-.21-.33.11-.51.22.3Zm-.32.18h0Zm.21.32-.11.53L82,59.36l.11-.53h0Zm-.11.53v0h0Zm0,0-.14.51-.2-.38.14-.51.2.35Zm-.14.51Zm0,0-.13.48-.2-.39.14-.48.19.38Zm-.13.48h0Zm0,0-.15.51-.19-.42.16-.51.19.4Zm-.15.5-.16.51-.18-.41.15-.51Zm-.16.51v0h0Zm0,0-.18.48-.17-.46.17-.48.18.43Zm-.18.48h0Zm0,0-.19.48L81,62.27l.2-.49.17.47Zm-.36,0Zm.17.46-.18.49-.17-.46.18-.49h0Zm-.18.49h0Zm0,0-.22.49-.15-.51.22-.49.16.49Zm-.22.49Zm0,0-.22.47-.15-.52.22-.46.15.51Zm-.22.47Zm0,0-.25.49-.14-.53.24-.48.15.52Zm-.25.49h0Zm0,0-.24.44-.14-.54.24-.45.14.54Zm-.38-.1Zm.14.54-.25.46-.14-.53.25-.47h0Zm-.25.46h0Zm0,0-.27.46-.13-.55.27-.46.13.54Zm-.27.46h0Zm0,0-.29.44L79.15,66l.29-.45.12.56Zm-.29.44h0Zm0,0L79,67l-.11-.58.28-.42.12.57Zm-.41-.15h0ZM79,67l-.28.44-.12-.57.28-.44h0Zm-.28.44h0Zm0,0-.31.42-.11-.59.31-.42.12.58Zm-.31.42Zm0,0-.33.42-.11-.59.33-.42.11.59Zm-.33.42h0Zm0,0-.33.4-.1-.6.33-.39.11.59Zm-.33.4-.33.4-.1-.6.33-.4Zm-.33.4Zm0,0-.36.4-.09-.6.35-.4.1.6Zm-.36.4Zm0,0-.35.38-.09-.61.35-.37.09.6Zm-.35.38Zm0,0-.37.38-.09-.61.38-.38.09.61Zm-.37.38-.38.38L75.83,70l.37-.37Zm-.38.38Zm0,0-.38.35-.08-.62.38-.35.08.62Zm-.38.35h0Zm0,0-.4.33-.07-.63.4-.33.07.62Zm-.4.33-.4.33L74.66,71l.4-.33Zm-.4.33Zm0,0-.42.33-.07-.63.42-.33.07.63Zm-.42.33Zm0,0-.42.31-.07-.63.42-.31.07.63Zm-.42.31-.42.31-.07-.63.42-.31Zm-.42.31Zm0,0-.44.28L73,72.22l.45-.29.06.63Zm-.44.28-.44.29-.06-.63.44-.29h0Zm-.44.29-.45.29,0-.64.44-.28.06.63Zm-.45.29Zm0,0-.44.27,0-.64.44-.27,0,.64Zm-.44.27Zm0,0-.47.24,0-.64.46-.24,0,.64Zm-.47.24-.46.25-.05-.65.47-.24Zm-.46.25h0Zm0,0-.48.22,0-.65.48-.22.05.65Zm-.52-.43Zm0,.65-.47.22,0-.65.47-.22h0Zm-.47.22Zm0,0-.49.2,0-.65.48-.2,0,.65Zm-.49.2-.48.2,0-.65.49-.2Zm-.48.2h0Zm0,0-.48.18,0-.65.48-.18,0,.65Zm-.48.18Zm0,0-.51.17,0-.65.51-.17,0,.65Zm-.51.17Zm0,0-.49.16,0-.65.49-.16,0,.65Zm-.49.16Zm0,0-.51.13,0-.65.5-.13,0,.65Zm-.51.13-.51.14,0-.66.51-.13Zm-.51.14-.51.13,0-.65.51-.14Zm-.51.13Zm0,0-.51.11,0-.65.51-.11,0,.65Zm-.51.11Zm0,0-.51.09,0-.65.51-.09,0,.65Zm-.51.09Zm0,0-.53.09,0-.66.53-.08,0,.65Zm-.53.09h0Zm0,0-.51.06,0-.65.51-.07,0,.66Zm-.51.06Zm0,0-.54.07v-.65l.53-.07,0,.65Zm-.54.07Zm0,0-.53,0v-.65l.54,0v.65Zm-.53,0Zm0,0-.51,0v-.66l.51,0v.65Zm-.51,0-.53,0v-.66l.53,0Zm-.53,0Zm0,0h-.53v-.66h.53v.66Zm-.53,2.71h-.58V73.09h1.16v6.07Z"/></g></g></svg>