<svg xmlns="http://www.w3.org/2000/svg" viewBox="0 0 117.42 181.43"><defs><style>.cls-1{fill:#373435;}.cls-2,.cls-3,.cls-4{fill:none;stroke:#000;stroke-width:0.25px;}.cls-2{stroke-miterlimit:10;}.cls-3,.cls-4{stroke-linecap:round;stroke-linejoin:round;}.cls-3{stroke-dasharray:11.08 11.08 11.08 11.08;}</style></defs><g id="Layer_2" data-name="Layer 2"><g id="Layer_1-2" data-name="Layer 1"><path class="cls-1" d="M4.24,25.32H4.8v3.17a1.41,1.41,0,0,1-.41-.07,2.29,2.29,0,0,1-.63-.4A4.9,4.9,0,0,1,3,27.26,7,7,0,0,0,2,26.2a1.24,1.24,0,0,0-.71-.27.76.76,0,0,0-.58.25.88.88,0,0,0-.24.65.91.91,0,0,0,.25.68.94.94,0,0,0,.7.26l-.06.6a1.49,1.49,0,0,1-1-.47A1.59,1.59,0,0,1,0,26.82a1.54,1.54,0,0,1,.38-1.09,1.24,1.24,0,0,1,1-.4,1.38,1.38,0,0,1,.56.12,2.21,2.21,0,0,1,.59.39,10.48,10.48,0,0,1,.84.9,8.43,8.43,0,0,0,.6.68,1.41,1.41,0,0,0,.32.24Zm-1.8,6.19A3,3,0,0,0,4,31.23a.81.81,0,0,0,.39-.68A.86.86,0,0,0,4,29.87a3.08,3.08,0,0,0-1.57-.27,3.05,3.05,0,0,0-1.57.27.81.81,0,0,0-.38.69.75.75,0,0,0,.34.65,3,3,0,0,0,1.61.3m0,.6a4.29,4.29,0,0,1-1.37-.18,1.62,1.62,0,0,1-.79-.52A1.27,1.27,0,0,1,0,30.55a1.44,1.44,0,0,1,.15-.67A1.47,1.47,0,0,1,.6,29.4a2.2,2.2,0,0,1,.71-.29A4.34,4.34,0,0,1,2.44,29a4.56,4.56,0,0,1,1.36.17,1.77,1.77,0,0,1,.8.52,1.35,1.35,0,0,1,.28.86,1.3,1.3,0,0,1-.5,1.08A3.1,3.1,0,0,1,2.44,32.11Zm1.8.63H4.8v3.17a1.14,1.14,0,0,1-.41-.07,2.29,2.29,0,0,1-.63-.4A4.9,4.9,0,0,1,3,34.68a7,7,0,0,0-1-1.06,1.24,1.24,0,0,0-.71-.27.76.76,0,0,0-.58.25.88.88,0,0,0-.24.65.91.91,0,0,0,.25.68.94.94,0,0,0,.7.26l-.06.6a1.49,1.49,0,0,1-1-.47A1.59,1.59,0,0,1,0,34.24a1.54,1.54,0,0,1,.38-1.09,1.24,1.24,0,0,1,1-.4,1.38,1.38,0,0,1,.56.12,2.21,2.21,0,0,1,.59.39,10.48,10.48,0,0,1,.84.9,8.43,8.43,0,0,0,.6.68,1.41,1.41,0,0,0,.32.24Z"/><path class="cls-1" d="M73.37,30.45a.54.54,0,0,0,.4.13.52.52,0,0,0,.38-.19.53.53,0,0,0,.14-.4.57.57,0,0,0-.2-.38.56.56,0,0,0-.91.46.56.56,0,0,0,.19.38m-.23.26a.85.85,0,0,1-.31-.62.88.88,0,0,1,.22-.65.92.92,0,0,1,.62-.32.86.86,0,0,1,.65.23.8.8,0,0,1,.31.62.84.84,0,0,1-.21.66.88.88,0,0,1-.62.3A.85.85,0,0,1,73.14,30.71Zm-.47,4.68.36-.5a1.18,1.18,0,0,0,.72.21.9.9,0,0,0,.57-.31,1,1,0,0,0,.23-.76,1.24,1.24,0,0,0-.46-.77,1.1,1.1,0,0,0-.78-.31,1,1,0,0,0-.7.37,1.06,1.06,0,0,0-.24.47,1,1,0,0,0,0,.49l-.43.37-1.55-2L72,30.9l.42.37-1.24,1.44.81,1a1.49,1.49,0,0,1,.36-.88,1.44,1.44,0,0,1,1-.51,1.49,1.49,0,0,1,1.12.41,1.7,1.7,0,0,1,.6,1,1.54,1.54,0,0,1-.38,1.33,1.51,1.51,0,0,1-1,.56,1.37,1.37,0,0,1-1-.27M70.38,35a1.11,1.11,0,0,0-.78-.32A.82.82,0,0,0,69,35a.85.85,0,0,0-.2.72,1.14,1.14,0,0,0,.43.75,1,1,0,0,0,.74.28.91.91,0,0,0,.66-.32.84.84,0,0,0,.22-.7,1.1,1.1,0,0,0-.42-.71m0,3.19.34-.45a1,1,0,0,0,.61.17.75.75,0,0,0,.47-.28.88.88,0,0,0,.22-.44,1.08,1.08,0,0,0,0-.47,1.92,1.92,0,0,0-.28-.52,2.84,2.84,0,0,0-.49-.55l-.09-.07a1.23,1.23,0,0,1,0,.66,1.17,1.17,0,0,1-.3.61,1.34,1.34,0,0,1-1,.48,1.54,1.54,0,0,1-1.12-.43,1.63,1.63,0,0,1-.61-1.09,1.47,1.47,0,0,1,.37-1.1,1.5,1.5,0,0,1,.75-.48,1.53,1.53,0,0,1,.92,0,3.6,3.6,0,0,1,1.15.72,4.57,4.57,0,0,1,1,1.11,1.72,1.72,0,0,1,.24,1,1.56,1.56,0,0,1-.39.89,1.28,1.28,0,0,1-1.78.23Z"/><path class="cls-1" d="M86.67,4.24V4.8H83.51a1.13,1.13,0,0,1,.06-.41,2.29,2.29,0,0,1,.4-.63A4.9,4.9,0,0,1,84.73,3a7,7,0,0,0,1.06-1,1.24,1.24,0,0,0,.27-.71.78.78,0,0,0-.24-.58.92.92,0,0,0-.66-.24.91.91,0,0,0-.68.25.94.94,0,0,0-.26.7l-.6-.06a1.49,1.49,0,0,1,.47-1A1.59,1.59,0,0,1,85.17,0a1.52,1.52,0,0,1,1.09.38,1.24,1.24,0,0,1,.4,1,1.38,1.38,0,0,1-.12.56,2,2,0,0,1-.38.58,9.28,9.28,0,0,1-.91.85,8.43,8.43,0,0,0-.68.6,1.41,1.41,0,0,0-.24.32ZM83,4.24V4.8H79.8a1.13,1.13,0,0,1,.06-.41,2.29,2.29,0,0,1,.4-.63A4.59,4.59,0,0,1,81,3a7.38,7.38,0,0,0,1-1,1.24,1.24,0,0,0,.27-.71.78.78,0,0,0-.24-.58,1,1,0,0,0-1.34,0,.94.94,0,0,0-.26.7l-.6-.06a1.49,1.49,0,0,1,.47-1A1.6,1.6,0,0,1,81.47,0a1.51,1.51,0,0,1,1.08.38,1.24,1.24,0,0,1,.4,1,1.38,1.38,0,0,1-.12.56,2,2,0,0,1-.38.58,8.92,8.92,0,0,1-.9.85,6.91,6.91,0,0,0-.68.6,1.46,1.46,0,0,0-.25.32Zm-3.71,0V4.8H76.09a1,1,0,0,1,.07-.41,2,2,0,0,1,.39-.63A4.59,4.59,0,0,1,77.32,3a7.38,7.38,0,0,0,1.05-1,1.24,1.24,0,0,0,.27-.71A.78.78,0,0,0,78.4.73a1,1,0,0,0-1.34,0,.94.94,0,0,0-.26.7l-.6-.06a1.49,1.49,0,0,1,.47-1A1.62,1.62,0,0,1,77.76,0a1.51,1.51,0,0,1,1.08.38,1.24,1.24,0,0,1,.4,1,1.38,1.38,0,0,1-.12.56,2,2,0,0,1-.38.58,8.92,8.92,0,0,1-.9.85,6.91,6.91,0,0,0-.68.6,1.46,1.46,0,0,0-.25.32Z"/><path class="cls-1" d="M62.91,78.72a1.07,1.07,0,0,0,.12.49.78.78,0,0,0,.35.37,1.23,1.23,0,0,0,.5.12A1,1,0,0,0,64.57,78a1,1,0,0,0-.71-.27.92.92,0,0,0-1,1m.19-2.21a.75.75,0,0,0,.79.78.75.75,0,0,0,.55-.22.73.73,0,0,0,.22-.52.74.74,0,0,0-.22-.54.76.76,0,0,0-.56-.22.79.79,0,0,0-.56.21A.72.72,0,0,0,63.1,76.51Zm.12,1a1.17,1.17,0,0,1-.54-.38,1,1,0,0,1-.18-.59,1.17,1.17,0,0,1,.38-.88,1.59,1.59,0,0,1,2,0,1.19,1.19,0,0,1,.38.88,1,1,0,0,1-.18.58,1.11,1.11,0,0,1-.52.38,1.3,1.3,0,0,1,.66.46,1.24,1.24,0,0,1,.23.76,1.39,1.39,0,0,1-.43,1,1.76,1.76,0,0,1-2.28,0,1.43,1.43,0,0,1-.43-1,1.25,1.25,0,0,1,.24-.78A1.17,1.17,0,0,1,63.22,77.51Zm-2.74.91V76.27L59,78.42Zm0,1.68V79H58.41v-.54l2.18-3.09h.48v3.09h.64V79h-.64V80.1Zm-3.71-1.68V76.27l-1.49,2.15Zm0,1.68V79H54.7v-.54l2.18-3.09h.48v3.09H58V79h-.65V80.1Z"/><polyline class="cls-2" points="66.09 134.82 66.09 134.47 66.09 134.15 66.07 133.82 66.02 133.47 65.97 133.15 65.92 132.82 65.82 132.5 65.74 132.17 65.62 131.85 65.49 131.55 65.37 131.22 65.22 130.92 65.04 130.65"/><path class="cls-1" d="M82.15,21l.06.58-6,.55L76.05,21l6-.55Zm-2.9.19,0,.55-.24.16,0-.55Zm0,.55v0Zm0,0,0,.55-.25.08,0-.55.24-.12Zm0,.55v0Zm0,0v.55h-.25v-.55l.25,0Zm0,.55v.55h-.25V22.9Zm0,.55V24h-.25v-.55Zm0,.55v0Zm0,.08,0,.53L79,24.45l0-.53.24.08Zm-.28.41v0Zm.24.08,0,.55L79,25l0-.55v0Zm0,.55v0Zm0,.07-.07.55-.23-.23L79,25l.23.16Zm-.07.55-.08.55-.22-.23.07-.55Zm-.08.55Zm0,0-.07.53-.23-.24.08-.52.22.23Zm-.07.53h0v0Zm0,0-.1.54-.21-.28.1-.55.22.26Zm-.1.54v0Zm0,0-.13.52-.2-.35.12-.53.21.32Zm-.33.17Zm.2.35-.12.55-.21-.35.13-.55h0Zm-.12.55h0Zm0,0-.15.53-.19-.4.15-.53.2.38Zm-.15.53h0Zm0,0-.18.52-.18-.43.18-.53.18.42Zm-.37.11h0Zm.2.4-.15.52-.2-.4.15-.52v0Zm-.15.52v0Zm0,0-.2.5-.16-.48.2-.5.18.44Zm-.36,0Zm.16.47-.2.53-.16-.47.2-.53h0Zm-.2.53h0Zm0,0-.2.49-.16-.48.2-.5.16.48Zm-.2.49v0h0Zm0,0-.25.5-.14-.53.25-.5.15.5Zm-.4,0h0Zm.16.51-.23.5-.15-.51.22-.5h0Zm-.23.5h0Zm0,0-.25.48-.14-.54.25-.47.14.52Zm-.25.48h0Zm0,0-.27.47-.13-.55.27-.48.14.55Zm-.27.47-.28.47-.13-.55.28-.47h0Zm-.28.47h0Zm0,0-.3.48L75.85,34l.29-.47.13.55Zm-.3.48Zm0,0-.29.45-.12-.57.3-.45.12.57Zm-.29.45-.3.45-.12-.57.3-.45Zm-.3.45h0Zm0,0L75,36l-.11-.58.32-.45.12.58ZM75,36h0Zm0,0-.35.43-.1-.6.35-.43L75,36Zm-.35.43-.35.42-.1-.6.35-.42Zm-.35.42Zm0,0-.35.4-.1-.6.35-.4.1.6Zm-.35.4h0Zm0,0-.38.42-.09-.6.37-.43.1.6Zm-.38.42Zm0,0-.38.38-.08-.61.37-.38.09.61Zm-.38.38-.4.4-.08-.61.4-.4Zm-.4.4Zm0,0-.4.38-.08-.62.4-.38.08.62Zm-.4.38Zm0,0-.4.35-.08-.62.4-.35.08.62Zm-.4.35Zm0,0-.43.35-.07-.63.43-.35.07.63Zm-.43.35-.42.35-.07-.63.42-.35Zm-.42.35Zm0,0-.45.33-.06-.63.45-.33.07.63Zm-.45.33-.45.32-.06-.63.45-.32Zm-.45.32h0Zm0,0-.45.29-.06-.63.45-.3.06.63Zm-.45.29-.45.3-.06-.63.45-.3Zm-.45.3h0Zm0,0-.48.27,0-.64.48-.27,0,.63Zm-.48.27-.47.28,0-.64.47-.28,0,.64Zm-.47.28Zm0,0-.5.25,0-.64.5-.26,0,.65Zm-.55-.39Zm0,.64-.48.25,0-.64.47-.25h0Zm-.48.25Zm0,0-.5.22,0-.64.5-.23,0,.65Zm-.5.22-.5.23,0-.65.5-.22Zm-.5.23Zm0,0-.53.2,0-.65.52-.2,0,.65Zm-.53.2Zm0,0-.5.18,0-.65.5-.18,0,.65Zm-.53-.47Zm0,.65-.52.19,0-.64.53-.2h0Zm-.52.19h0Zm0,0-.52.15,0-.65.53-.15,0,.64Zm-.52.15-.53.15,0-.65.52-.15Zm-.53.15Zm0,0-.53.12,0-.65.53-.12,0,.65Zm-.53.12-.52.13,0-.65.52-.13Zm-.52.13Zm0,0-.55.12,0-.65.55-.12,0,.65Zm-.55.12Zm0,0-.55.08,0-.66.55-.07,0,.65Zm-.57-.58Zm0,.66-.53.1v-.66l.52-.1h0Zm-.53.1Zm0,0-.55.05v-.66l.55,0v.66Zm-.55.05-.55,0v-.66l.55-.05Zm-.55,0-.55.05v-.66l.55,0Zm-.55.05Zm0,0h-.55v-.66h.55v.66Zm-.56-.66Zm0,.66-.55,0v-.65l.55,0h0Zm-.42,2.73-.58,0-.27-6.07,1.16,0,.27,6.06Z"/><line class="cls-3" x1="58.42" y1="133.48" x2="58.42" y2="126.4"/><line class="cls-3" x1="57.4" y1="134.5" x2="50.32" y2="134.5"/><line class="cls-3" x1="58.42" y1="135.51" x2="58.42" y2="142.59"/><line class="cls-3" x1="59.43" y1="134.5" x2="66.51" y2="134.5"/><path class="cls-4" d="M58.39,134.52h.53m-.53,0v.5m0-.5h-.5m.5,0V134"/><line class="cls-3" x1="105.22" y1="134.5" x2="63.07" y2="134.5"/><line class="cls-3" x1="11.61" y1="134.5" x2="53.77" y2="134.5"/><line class="cls-3" x1="58.42" y1="87.69" x2="58.42" y2="129.84"/><line class="cls-3" x1="58.42" y1="181.3" x2="58.42" y2="139.15"/><line class="cls-3" x1="105.22" y1="18.96" x2="63.07" y2="22.64"/><line class="cls-3" x1="58.42" y1="53.38" x2="58.42" y2="10.06"/><line class="cls-3" x1="11.61" y1="18.96" x2="53.76" y2="22.64"/><path class="cls-1" d="M103.8,83.87h-.58V77.8h1.16v6.07Zm0-2.71H13v-.65h90.8ZM13,83.87h-.58V77.8h1.16v6.07Z"/><path class="cls-1" d="M103.25,8.57h-.58V2.49h1.16V8.57Zm0-2.71H58.39V5.2h44.86ZM58.39,8.57H57.8V2.49H59V8.57Z"/><path class="cls-1" d="M2.46,52v-.58H8.54v1.16H2.46Zm2.71,0V11.08h.66V52ZM2.46,11.08V10.5H8.54v1.16H2.46Z"/><path class="cls-4" d="M12.48,25.17v0l0-.13v-.17l0-.23,0-.32,0-.38.05-.42,0-.48,0-.52.05-.55.05-.6.08-.63,0-.65.05-.65,0-.65.07-.67.05-.63,0-.62.05-.6.05-.58,0-.52.05-.48,0-.42.05-.37,0-.3v-.25l0-.18v-.1l0,0m38.5,12.74-.61.8-.57.7-.4.48-.35.35-.2.22-.1.1m2.5-5.57,0,.37-.05.65,0,.68-.07.62-.05.6m0-7.55.2.38.08.15M53,20.82l0-.1.25-.57m8.95-1.93.55.58.55.77.28.58m-10.33,0,.5-.9.68-.85.2-.18m9,1.93.22.57.05.1m-5.45,3.95.65-.05.63-.1.62-.17.58-.25.57-.3.53-.38.47-.42.43-.48.35-.5.32-.57.25-.58.18-.62.1-.63,0-.62,0-.65-.1-.63-.18-.6-.25-.6-.32-.55-.35-.52-.43-.48L62,14.65l-.53-.37-.57-.3-.58-.25-.62-.18-.63-.1-.65,0-.62,0-.63.1-.62.18-.58.25-.57.3-.53.37-.47.42-.43.48-.37.52-.3.55-.25.6-.18.6-.1.63,0,.65,0,.62.1.63L53,21l.25.58.3.57.37.5.43.48.47.42.53.38.57.3.58.25.62.17.63.1Zm0,.4.68,0,.65-.13.62-.17.63-.23.57-.32.55-.38.5-.42.48-.48.4-.52.32-.55.28-.6.22-.63.13-.65.07-.65v-.65l-.07-.67-.13-.63-.22-.62-.28-.6-.32-.58-.4-.52-.48-.48-.5-.42-.55-.37-.57-.3-.63-.25-.62-.18-.65-.1-.68,0-.65,0-.65.1-.65.18-.6.25-.57.3-.55.37-.5.42-.48.48-.39.52-.33.58-.28.6-.22.62-.15.63,0,.67v.65l0,.65.15.65.22.63L53,22l.33.55.39.52.48.48.5.42.55.38.57.32.6.23.65.17.65.13Zm-5.15.6-.34-.6-.25-.62-.2-.68-.1-.65-.05-.7m11.27,3.25-.65.8-.8.7-.78.48-.87.35-.78.22-.85.1H58l-.85-.1-.75-.2-.73-.27-.72-.4L54.29,27l-.57-.57-.48-.63m11.28-3.25,0,.7-.1.65-.2.68-.25.62-.35.6M103.26,13v0l0,.1v.18l0,.25,0,.3,0,.37,0,.42,0,.48.05.52,0,.58,0,.6,0,.62,0,.63.05.67.07.65,0,.65.05.65,0,.63.08.6,0,.55,0,.52.05.48,0,.42.05.38,0,.32,0,.23V25l0,.13v0m-39.56.6-.08-.6,0-.62,0-.68,0-.65-.05-.37M67,28.42h0l-.1-.1-.17-.2-.28-.27-.35-.4-.4-.48-.47-.57-.45-.63m-.3-7,.17-.37.1-.18M50.12,45.74l.15-.35.18-.35,0,0m.25,2.25h0l-.18-.38m-.3-1.15h-.1m.05.15-.05-.15m.35-.67,0,0-.18.47-.15.48m0,0,.1.2.15.35.2.37m1.28-3-.08,0-.42,0-.38,0m0,0-.27.47-.23.53m.1,1.92.15.23.48.67m0,0,.42,0,.45,0m0,.07H51.2M54,47.74l-1.92.15m.85-4-.53,0-.52,0m.22,3.85h.08l.47,0,.5,0m.62-3.85,1.08,1.85m-1.08-1.85H52.9m.45.93-.21-.35L53,44.12l-.09-.23M54,45.74l-.25-.35L53.49,45l-.07-.1-.07-.12m0,0,.12.22.07.23.05.25,0,.25V46l0,.25-.05.25-.07.22M51.85,44h.22l.2.05.23,0,.2.1.2.12.17.15.15.18.13.2m-2.88.25.1-.23.13-.2.15-.17.17-.18.2-.12.2-.1.2,0,.23-.05m-1.28,3-.1-.22-.07-.25-.08-.23,0-.25v-.25l0-.25,0-.25.1-.22m.1,1.92.15.18.15.2.18.15.2.12.19.1.21,0,.22,0h.2m1.4-1.08-.1.23-.15.2-.15.17-.17.15-.18.13-.2.1-.22.07-.23,0m1-.08.15-.47.2-.53m.5,1h-.85m1.7-2-.85,2m.85-2H54m-.5,1,0-.07.23-.45.25-.48m15.45-1.67v-.18m1.7,0,.12,0,.05,0m-1.87-.08h1.7m.17,3.1v.83m-.17.07.12,0,.05,0m0-2.75V44m0,0v0l-.05,0-.12,0m-1.7,3.82V46.07m0,1.82h1.7m.17-.9,0,.23-.15.67m.17-.9V45.07m-.17,1,0,.2.1.35,0,.37m-1.87-.92v-2m1.7,0,.12.47.05.53m-1.87-1h1.7m-1.7,2h1.7m.17-1v0l-.05.47-.12.48M53,47.82h.42m.4-3.85h.7m-1.1,3.85h1.1M53.82,44h0l.2.08.2.12.18.13.17.17.13.18.12.22m-1.67,2.88h.22m.6-.13h0l.2-.12.18-.13.17-.17.13-.2.12-.2m-1.45,1h.23l.22,0h0m2.5-1.88-.15-.45-.2-.5h0m0,0-.22-.4-.25-.4L55.39,44m-.9,0h.9m-.55,1-.17-.4-.13-.4,0-.17m1,1.92-.33-.45-.27-.5h0m0,1.93.1-.23.08-.25,0-.25v-.5l0-.25-.08-.22-.1-.23m-.35,2.88h.9m0,0,.33-.45.27-.5m0,0,.2-.4.13-.4,0-.18m-.9,0h.9m-1.53,1,.23-.4.27-.4.13-.18m-1,1.93.15-.45.2-.5M68.39,44v1m-.25-1h.25m-2.3,1V44m.25,0h-.25m2.3,2.9v1m-.25,0h.25m-2.3,0h0v-1m.25,1h-.25m2.3-2.88v1.93M68.14,44h-1.8m0,0-.17.45-.08.5v0m2.3,0,0,.4-.12.4-.08.15m0-1.92.18.45.07.5v0m-2.3,1.93V44.94m0,0,0,.4.15.4,0,.15m1.8,0h-1.8m0,0-.17.48-.08.47v0m0,0,0,.4.15.4,0,.15m1.8,0h-1.8m2-1,0,.4-.12.4-.08.15m0-1.93.18.48.07.47v0M50.82,11.08h14.8m0,0H66m-7.6,13.37-.27,0-.3-.07-.28-.13-.25-.17-.22-.2-.2-.25-.15-.25-.08-.3,0-.3v-.33l0-.27.1-.28.15-.27.2-.23.23-.2.25-.17.3-.13.3-.05.3,0,.3.05.27.07.28.13.25.17.22.2.18.25.12.28.1.3,0,.32v.28l-.08.3-.1.27-.15.28-.2.22-.25.2-.25.15-.3.1-.25.05ZM66.09,52H50.72m0-39.49V12.4l0-.2,0-.27V11.5M66,11.5v.33l0,.3v.22l0,.13m0-1H50.77m15.32,33v.08l0,.22-.05.35,0,.45V46l0,.45,0,.4,0,.28,0,.15v0M12.48,25.17l37.34,3.28m.9-12.18L13.55,13M52.3,19.1v3.42m12.22,0V19.1M103.26,13,66.09,16.27M67,28.45l37.34-3.28m-35.94,22h1m-3.35,0h0m0-2.57h0m3.35,0h-1M66,11.5v-.42m-15.17,0v.42M66.09,52V47.82m0-3.85V27.45m0-11.18V12.48m-15.37,0v3.79m0,30.92V52m0-24.52V44.52"/><path class="cls-4" d="M51.9,138.57l0,.05.35.57.35.48m0-10.32-.45.65-.22.37m-39.47,4.15v.65l0,.65v.65l0,.6,0,.57,0,.55.05.5,0,.48,0,.4.05.32.05.28.08.22,0,.15.05.05h0l.07-.05.05-.15,0-.22.05-.28.05-.32,0-.4.05-.48,0-.5.05-.55,0-.57v-.6l0-.65v-.65l0-.65,0-.67v-.65l0-.63V132l0-.58-.05-.55,0-.5-.05-.47,0-.4-.05-.33-.05-.27,0-.23-.05-.12-.07-.08h0l-.05.08,0,.12-.08.23-.05.27-.05.33,0,.4,0,.47-.05.5,0,.55,0,.58,0,.62v.63l0,.65Zm0,0,0,.63v.62l0,.62V137l0,.57.05.53,0,.47,0,.43.05.37.05.3,0,.25.05.18,0,.1.05.05.08-.05.05-.1,0-.18.05-.25,0-.3.05-.37,0-.43.05-.47,0-.53,0-.57,0-.58,0-.62v-2.52l0-.63,0-.57,0-.58,0-.52-.05-.48,0-.42-.05-.35,0-.33-.05-.25,0-.17-.05-.1-.08,0-.05,0,0,.1-.05.17,0,.25-.05.33-.05.35,0,.42,0,.48-.05.52,0,.58v.57l0,.63v.62ZM58.39,88.63H57.14l-.62,0-.58,0-.57,0-.53,0-.47,0-.43,0-.37,0-.3,0L53,89l-.18.05-.1,0,0,0,0,.07.1,0,.18,0,.25,0,.3,0,.37.05.43,0,.47.05.53,0,.57,0,.58,0,.62,0h2.53l.62,0,.58,0,.57,0,.53,0,.47-.05.43,0,.35-.05.32,0,.25,0,.18,0,.1,0,0-.07,0,0L64,89,63.79,89l-.25,0-.32,0-.35,0-.43,0-.47,0-.53,0-.57,0-.58,0-.62,0H58.39Zm0,0h-.65l-.65,0h-.65l-.6,0-.57,0-.55,0-.5,0-.48,0-.39,0-.33,0-.28.07-.22,0-.15,0,0,0v.08l0,0,.15.05.22,0,.28,0,.33,0,.39,0,.48.05.5,0,.55,0,.57,0,.6,0h.65l.65,0h1.33l.65,0h.62l.63,0,.57,0,.55,0,.5,0,.48-.05.4,0,.32,0,.28,0,.22,0,.13-.05.07,0v-.08l-.07,0-.13,0-.22,0-.28-.07-.32,0-.4,0-.48,0-.5,0-.55,0-.57,0-.63,0h-.62l-.65,0Zm-4,39.37-.15.07-.57.35-.48.35m10.33,0-.65-.45-.45-.25m-.08,13,.1-.08.58-.35.5-.35m-10.33,0,.63.45.47.25m4,39.44h.68l.65,0h.62l.63,0,.57,0,.55,0,.5-.05.48-.05.4,0,.32-.05.28,0,.22-.08.13-.05.07,0v-.05l-.07-.07-.13-.05-.22,0-.28-.05-.32,0-.4-.05-.48-.05-.5,0-.55,0-.57,0-.63,0H59.07l-.68,0-.65,0h-1.3l-.6,0-.57,0-.55,0-.5,0-.48.05-.39.05-.33,0-.28.05-.22,0-.15.05,0,.07v.05l0,0,.15.05.22.08.28,0,.33.05.39,0,.48.05.5.05.55,0,.57,0,.6,0h.65l.65,0Zm0,0,.65,0h.63l.62,0h.58l.57-.05.53,0,.47,0,.43,0,.35-.05.32,0,.25-.05L64,180l.1,0,0-.05,0-.08-.1-.05-.18-.05-.25,0-.32-.05-.35,0-.43,0-.47-.05-.53,0-.57,0-.58,0-.62,0H57.14l-.62,0-.58,0-.57,0-.53,0-.47.05-.43,0-.37,0-.3.05-.25,0-.18.05-.1.05,0,.08,0,.05.1,0,.18.05.25.05.3,0,.37.05.43,0,.47,0,.53,0,.57.05h.58l.62,0h.63Zm45.89-45.89v-1.27l0-.63,0-.57,0-.58,0-.52,0-.48,0-.42,0-.35,0-.33-.05-.25,0-.17,0-.1,0,0-.08,0,0,.1-.05.17,0,.25,0,.33,0,.35,0,.42,0,.48,0,.52,0,.58,0,.57,0,.63v2.52l0,.62,0,.58,0,.57,0,.53,0,.47,0,.43,0,.37,0,.3,0,.25.05.18,0,.1.08.05,0-.05,0-.1,0-.18.05-.25,0-.3,0-.37,0-.43,0-.47,0-.53,0-.57,0-.58,0-.62v-1.25Zm0,0v-.67l0-.65v-.63l0-.62,0-.58-.05-.55,0-.5-.05-.47,0-.4,0-.33-.08-.27,0-.23-.05-.12,0-.08h-.07l-.05.08,0,.12,0,.23,0,.27,0,.33-.05.4,0,.47,0,.5,0,.55,0,.58,0,.62v.63l0,.65v1.32l0,.65v.65l0,.6,0,.57,0,.55,0,.5,0,.48.05.4,0,.32,0,.28,0,.22,0,.15.05.05h.07l0-.05.05-.15,0-.22.08-.28,0-.32,0-.4.05-.48,0-.5.05-.55,0-.57,0-.6v-.65l0-.65Zm-39.41-4.05,0-.05-.35-.6-.35-.47m0,10.32.45-.63.2-.4M50.57,124.15l-.1.07-.07,0-.08,0,0,0m-.13.23-.05.07m1.93.85L51,126.1m-.85-1.48.15-.2.18-.17.07,0,0,0m.4,1.95-.85-1.48m2.18-1.45h0l-.23.13m0,0-.2.12-.22.13-.21.12-.19.1-.2.13-.18.1-.15.07-.15.08m0,0,.23-.1.25,0h.15m1.1,1.32-.25.15M51.2,124l.42-.38.45-.32m0,2.17L51.2,124m.87-.7.08,0,.15-.08m-2,21.52h0l0,0,0,0,.1,0m.5-1.85.85.48m-.85-.48-.85,1.45m.35.4,0,0-.18-.15-.15-.23m.35.4.1.08.13.07.15.08.17.1.2.12.2.1.2.13.23.12m-.88-.7-.27,0-.23-.08m1.38.8.22.13.2.12,0,0m-.48-2.45.48.27m0,2.13-.45-.23m0-2.17L51,144.89m.88.7-.08-.05-.42-.3-.38-.35m1.93-4.67h0l.05,0,.07,0,0,0m-1.1,2-.1,0-.07,0,0,0v0m1.37-1.85-.22-.07h-.4m-.9,1.55.7-1.2m-.33,1.7-.17-.15-.15-.23,0-.12m.7.6h0l-.28-.08v0m.33.2-.08,0-.15-.1-.1-.07m1.1-13.62,0,.05-.07,0-.05,0v0m-1.15-2v0l0,0,.07,0,.1,0m-.37.5.7,1.2m.2.35.32,0,.27-.07,0,0M51.6,127.2l.15-.3.2-.2h0m0,0,.23-.08h.1m0-.12-.08,0-.15.1-.1.08m13.65,10.19.2-.7.12-.72,0-.72,0-.75-.08-.73-.15-.72-.22-.7-.3-.65-.35-.65-.4-.6-.48-.58-.52-.52-.58-.45-.6-.4-.65-.35-.67-.28-.7-.22-.73-.15-.72-.08h-.73l-.75.08-.72.12-.7.2-.68.28-.65.35-.62.4-.58.45-.52.5-.47.57-.43.6-.35.63-.3.67-.22.7-.18.73-.07.72,0,.72,0,.73.1.72.2.73.25.67.33.68.37.62.45.58.5.55.55.47.6.45.62.38.65.3.7.25.7.17.73.13.75,0,.72,0,.73-.1.72-.18.68-.25.67-.3.63-.35.6-.45.55-.47.5-.53.45-.57.4-.63.32-.67ZM50.77,133.5l.15-.75.2-.73.3-.72.35-.68.4-.62.5-.6.53-.55.57-.48.65-.42.67-.38.7-.3.73-.22.75-.15.75-.08h.77l.75.08.75.15.73.22.7.3.67.38.63.42.6.48.52.55.48.6.42.62.35.68.3.72.2.73.15.75m0,2-.15.75-.2.72-.3.73-.35.67-.42.63-.48.6-.52.55-.6.47-.63.45-.67.35-.7.3-.73.23-.75.15-.75.07H58l-.75-.07-.75-.15-.73-.23-.7-.3-.67-.35-.65-.45-.57-.47-.53-.55-.5-.6-.4-.63-.35-.67-.3-.73-.2-.72-.15-.75m0-2v0l0,.18,0,.25v1l0,.27,0,.2v.1m0,0h.1m0-2h-.1m15.27,2v-.05l0-.18v-.24l0-.3v-.68l0-.27,0-.2v-.1m0,0h-.12m0,2H66m-53,5.1H52.3m0-51.51V128.4H13m51.52,0V89.11m0,90.8V140.62m-12.22,0v39.29m51.51-51.51H64.52m0,12.22h39.29M50.3,124.32l-.13.23m3.3,4,0,0m-1.69-2.95.5.88m-2.13,18,.13.22m2-2.17-.5.87m1.69-2.95,0,0m-.57-.25-.38.05m-.92,1.55.15.37m.77-13.44.38.07m-1.15-2-.15.38"/><path class="cls-1" d="M66.08,63.38H65.5V57.31h1.17v6.07Zm0-2.71H50.73V60H66.08ZM50.73,63.38h-.58V57.31h1.17v6.07Z"/><path class="cls-1" d="M61.45,57h1.63l-.5-1.33a9.1,9.1,0,0,1-.34-1,8,8,0,0,1-.27.92Zm-1.38,2,1.83-4.78h.7l1.94,4.78h-.72l-.55-1.45h-2l-.52,1.45Zm-1.24-3.56-2.41,2.71a1.83,1.83,0,0,0,.46.28,1.49,1.49,0,0,0,.6.11,1.54,1.54,0,0,0,1.17-.5,2,2,0,0,0,.46-1.41,2.55,2.55,0,0,0-.28-1.19M58.57,55a2,2,0,0,0-.54-.34,1.46,1.46,0,0,0-.54-.08,1.56,1.56,0,0,0-1.17.48,2,2,0,0,0-.47,1.44,2.62,2.62,0,0,0,.08.67,2.1,2.1,0,0,0,.21.54Zm.39-.45.55-.61.32.28-.58.64a2.82,2.82,0,0,1,.38.72,3,3,0,0,1,.13.92,2.9,2.9,0,0,1-.29,1.31,2.07,2.07,0,0,1-.84.87A2.35,2.35,0,0,1,57.5,59a2.3,2.3,0,0,1-.81-.13,2.52,2.52,0,0,1-.66-.37l-.55.61-.32-.27.57-.65a4.11,4.11,0,0,1-.43-.82,3.24,3.24,0,0,1,.19-2.14,2.09,2.09,0,0,1,.82-.87,2.38,2.38,0,0,1,1.18-.3,2.13,2.13,0,0,1,.76.12A2.73,2.73,0,0,1,59,54.57Z"/><path class="cls-1" d="M117.42,129.05v.58h-6.07v-1.16h6.07Zm-2.71,0V140h-.65v-10.9Zm2.71,10.9v.58h-6.07v-1.16h6.07Z"/><path class="cls-1" d="M112,132.66v-1.18a2.15,2.15,0,0,0,0-.44,1,1,0,0,0-.13-.36.67.67,0,0,0-.26-.24.92.92,0,0,0-.41-.1.81.81,0,0,0-.46.14.67.67,0,0,0-.28.38,2.16,2.16,0,0,0-.08.7v1.1Zm-2.21,0v-1a2.11,2.11,0,0,0-.06-.6.71.71,0,0,0-.24-.37.7.7,0,0,0-.42-.12.74.74,0,0,0-.42.12.52.52,0,0,0-.24.32,2.47,2.47,0,0,0-.07.73v.95Zm2.77.63h-4.78V131.5a2.12,2.12,0,0,1,.15-.87,1.12,1.12,0,0,1,.44-.52,1.13,1.13,0,0,1,.63-.19,1.06,1.06,0,0,1,.57.17,1.14,1.14,0,0,1,.44.5,1.28,1.28,0,0,1,.44-.67,1.19,1.19,0,0,1,.72-.23,1.49,1.49,0,0,1,.63.14,1.12,1.12,0,0,1,.44.35,1.79,1.79,0,0,1,.24.52,3.47,3.47,0,0,1,.08.78ZM109,135l2.71,2.42A1.63,1.63,0,0,0,112,137a1.68,1.68,0,0,0,.11-.6,1.54,1.54,0,0,0-.5-1.17,2.06,2.06,0,0,0-1.41-.46,2.56,2.56,0,0,0-1.2.27m-.33.27a2.08,2.08,0,0,0-.33.53,1.53,1.53,0,0,0-.09.54,1.57,1.57,0,0,0,.48,1.18,2,2,0,0,0,1.45.46,3.36,3.36,0,0,0,.67-.07,3,3,0,0,0,.54-.21Zm-.45-.39-.6-.55.27-.32.64.58a2.7,2.7,0,0,1,.73-.38,3.19,3.19,0,0,1,2.23.16,2,2,0,0,1,.86.83,2.42,2.42,0,0,1,.17,1.95,2.62,2.62,0,0,1-.37.65l.61.55-.27.32-.65-.57a3.9,3.9,0,0,1-.83.43,3.21,3.21,0,0,1-2.13-.19,2,2,0,0,1-.88-.82,2.43,2.43,0,0,1-.29-1.18,2.49,2.49,0,0,1,.11-.76A3,3,0,0,1,108.17,134.9Z"/></g></g></svg>