<svg xmlns="http://www.w3.org/2000/svg" viewBox="0 0 97.35 166.56"><defs><style>.cls-1{fill:#373435;}.cls-2,.cls-3,.cls-4{fill:none;stroke:#000;stroke-width:0.25px;}.cls-2{stroke-miterlimit:10;}.cls-3,.cls-4{stroke-linecap:round;stroke-linejoin:round;}.cls-3{stroke-dasharray:11.08 11.08 11.08 11.08;}</style></defs><g id="Layer_2" data-name="Layer 2"><g id="Layer_1-2" data-name="Layer 1"><path class="cls-1" d="M46.81,62.76h-.58V56.69h1.16v6.07Zm0-2.71H32v-.66H46.81ZM32,62.76h-.58V56.69H32.6v6.07Z"/><path class="cls-1" d="M97.35,120v.58H91.28v-1.16h6.07Zm-2.71,0v10.9H94V120Zm2.71,10.9v.58H91.28v-1.16h6.07Z"/><path class="cls-1" d="M91.89,123.57v-1.18a2.15,2.15,0,0,0,0-.44,1,1,0,0,0-.12-.36.91.91,0,0,0-.27-.24.88.88,0,0,0-.41-.09.74.74,0,0,0-.46.14.71.71,0,0,0-.28.37,2.49,2.49,0,0,0-.08.7v1.1Zm-2.21,0v-1a2.7,2.7,0,0,0-.05-.6.68.68,0,0,0-.24-.36.7.7,0,0,0-.42-.12.82.82,0,0,0-.42.11.61.61,0,0,0-.25.32,3,3,0,0,0-.06.73v.95Zm2.77.64H87.67v-1.8a2.12,2.12,0,0,1,.15-.87,1.08,1.08,0,0,1,.45-.52,1.21,1.21,0,0,1,.63-.18,1.07,1.07,0,0,1,.57.16,1.2,1.2,0,0,1,.44.5,1.26,1.26,0,0,1,.43-.66,1.14,1.14,0,0,1,.72-.24,1.46,1.46,0,0,1,.63.14,1.38,1.38,0,0,1,.45.36,1.46,1.46,0,0,1,.23.52,3.31,3.31,0,0,1,.08.77Zm-3.56,1.73,2.71,2.41a1.83,1.83,0,0,0,.28-.46,1.49,1.49,0,0,0,.11-.6,1.54,1.54,0,0,0-.5-1.17,2,2,0,0,0-1.41-.46,2.55,2.55,0,0,0-1.19.28m-.33.26a2,2,0,0,0-.34.54,1.46,1.46,0,0,0-.08.54,1.52,1.52,0,0,0,.48,1.17,2,2,0,0,0,1.44.46,2.65,2.65,0,0,0,.67-.07,2.55,2.55,0,0,0,.54-.21Zm-.45-.39-.61-.55.27-.32.65.58a2.82,2.82,0,0,1,.72-.38,3,3,0,0,1,.92-.13,2.9,2.9,0,0,1,1.31.29,2.07,2.07,0,0,1,.87.84,2.35,2.35,0,0,1,.29,1.13,2.3,2.3,0,0,1-.13.81,2.33,2.33,0,0,1-.37.65l.61.56-.27.32-.65-.58a3.27,3.27,0,0,1-.82.43,2.88,2.88,0,0,1-.83.11,2.78,2.78,0,0,1-1.31-.3,2,2,0,0,1-.87-.82,2.32,2.32,0,0,1-.3-1.17,2.13,2.13,0,0,1,.12-.76A2.73,2.73,0,0,1,88.11,125.81Z"/><path class="cls-1" d="M41.86,56.33h1.63L43,55c-.15-.4-.27-.73-.34-1a6.4,6.4,0,0,1-.27.92Zm-1.38,2,1.84-4.78H43l2,4.78h-.72l-.56-1.45h-2l-.52,1.45Zm-1.23-3.56-2.42,2.71a1.83,1.83,0,0,0,.46.28,1.68,1.68,0,0,0,.6.11,1.54,1.54,0,0,0,1.17-.5,2,2,0,0,0,.46-1.41,2.52,2.52,0,0,0-.27-1.19M39,54.39a2.42,2.42,0,0,0-.53-.33,1.53,1.53,0,0,0-.54-.09,1.57,1.57,0,0,0-1.18.48,2,2,0,0,0-.47,1.45,2.73,2.73,0,0,0,.08.67,2.42,2.42,0,0,0,.21.54Zm.39-.44.55-.61.32.27-.57.64a3.44,3.44,0,0,1,.38.73,3.26,3.26,0,0,1,.12.92,2.9,2.9,0,0,1-.29,1.31,2.05,2.05,0,0,1-.83.87,2.41,2.41,0,0,1-1.14.29,2.3,2.3,0,0,1-.81-.13,2.52,2.52,0,0,1-.66-.37l-.55.61-.32-.27.57-.65a3.39,3.39,0,0,1-.42-.83,2.47,2.47,0,0,1-.11-.82,2.9,2.9,0,0,1,.29-1.31,2,2,0,0,1,.82-.87,2.39,2.39,0,0,1,1.19-.3,2.2,2.2,0,0,1,.76.12A2.69,2.69,0,0,1,39.37,54Z"/><path class="cls-1" d="M4.24,24.2H4.8v3.16a1.13,1.13,0,0,1-.41-.06,2.29,2.29,0,0,1-.63-.4A4.9,4.9,0,0,1,3,26.14a7,7,0,0,0-1-1.06,1.24,1.24,0,0,0-.71-.27.78.78,0,0,0-.58.24.92.92,0,0,0-.24.66.91.91,0,0,0,.25.68.94.94,0,0,0,.7.26l-.06.6a1.49,1.49,0,0,1-1-.47A1.6,1.6,0,0,1,0,25.69a1.51,1.51,0,0,1,.38-1.08,1.24,1.24,0,0,1,1-.4,1.38,1.38,0,0,1,.56.12,2,2,0,0,1,.58.38,8.23,8.23,0,0,1,.85.91,8.43,8.43,0,0,0,.6.68,1.41,1.41,0,0,0,.32.24Zm-1.8,6.19A3,3,0,0,0,4,30.11a.81.81,0,0,0,.39-.68A.84.84,0,0,0,4,28.75a3.08,3.08,0,0,0-1.57-.27,3.05,3.05,0,0,0-1.57.27.8.8,0,0,0-.38.69.75.75,0,0,0,.34.65,3,3,0,0,0,1.61.3m0,.6a4.29,4.29,0,0,1-1.37-.18,1.62,1.62,0,0,1-.79-.52A1.27,1.27,0,0,1,0,29.43a1.44,1.44,0,0,1,.15-.67,1.3,1.3,0,0,1,.45-.48,2.45,2.45,0,0,1,.71-.3,4.9,4.9,0,0,1,1.13-.1,4.56,4.56,0,0,1,1.36.17,1.76,1.76,0,0,1,.8.51,1.37,1.37,0,0,1,.28.87,1.3,1.3,0,0,1-.5,1.08A3.1,3.1,0,0,1,2.44,31Zm1.8.63H4.8v3.16a1.13,1.13,0,0,1-.41-.06,2.29,2.29,0,0,1-.63-.4A4.9,4.9,0,0,1,3,33.56,7,7,0,0,0,2,32.5a1.24,1.24,0,0,0-.71-.27.78.78,0,0,0-.58.24.92.92,0,0,0-.24.66.91.91,0,0,0,.25.68.94.94,0,0,0,.7.26l-.06.6a1.49,1.49,0,0,1-1-.47A1.59,1.59,0,0,1,0,33.12,1.52,1.52,0,0,1,.38,32a1.24,1.24,0,0,1,1-.4,1.38,1.38,0,0,1,.56.12,2,2,0,0,1,.58.38,8.23,8.23,0,0,1,.85.91,8.43,8.43,0,0,0,.6.68,1.41,1.41,0,0,0,.32.24Z"/><path class="cls-1" d="M53.82,29.32a.56.56,0,0,0,.41.13.52.52,0,0,0,.38-.19.57.57,0,0,0,.13-.4.55.55,0,0,0-.59-.51.56.56,0,0,0-.38.19.54.54,0,0,0-.13.4.55.55,0,0,0,.18.38m-.23.26a.89.89,0,0,1-.31-.62.92.92,0,0,1,.22-.65.88.88,0,0,1,1.28-.09.87.87,0,0,1,.31.62.89.89,0,0,1-.22.66.86.86,0,0,1-.62.3A.85.85,0,0,1,53.59,29.58Zm-.47,4.68.36-.5a1.18,1.18,0,0,0,.72.21.9.9,0,0,0,.57-.31A1,1,0,0,0,55,32.9a1.27,1.27,0,0,0-.45-.77,1.14,1.14,0,0,0-.79-.31,1,1,0,0,0-.69.37,1.08,1.08,0,0,0-.25.47,1,1,0,0,0,0,.49l-.42.37-1.56-2,1.55-1.79.43.37L51.6,31.58l.81,1a1.62,1.62,0,0,1,.36-.88,1.46,1.46,0,0,1,1-.51,1.49,1.49,0,0,1,1.12.41,1.7,1.7,0,0,1,.6,1,1.67,1.67,0,0,1-1.35,1.89,1.38,1.38,0,0,1-1-.27m-2.29-.36a1.11,1.11,0,0,0-.78-.32.79.79,0,0,0-.64.3.89.89,0,0,0-.21.72,1.14,1.14,0,0,0,.43.75,1,1,0,0,0,.74.28.93.93,0,0,0,.89-1,1.16,1.16,0,0,0-.43-.71m0,3.19.33-.45a1,1,0,0,0,.61.17.75.75,0,0,0,.48-.28.79.79,0,0,0,.21-.44,1,1,0,0,0,0-.47,1.92,1.92,0,0,0-.28-.52,3.57,3.57,0,0,0-.48-.55.24.24,0,0,1-.09-.07,1.33,1.33,0,0,1,0,.66,1.24,1.24,0,0,1-.29.61,1.31,1.31,0,0,1-1,.48,1.54,1.54,0,0,1-1.12-.43,1.63,1.63,0,0,1-.61-1.09,1.47,1.47,0,0,1,.37-1.1,1.54,1.54,0,0,1,.75-.48,1.56,1.56,0,0,1,.93,0,3.58,3.58,0,0,1,1.14.72,4.57,4.57,0,0,1,1,1.11A1.64,1.64,0,0,1,53,36a1.56,1.56,0,0,1-.39.89,1.31,1.31,0,0,1-.83.48A1.35,1.35,0,0,1,50.86,37.09Z"/><path class="cls-1" d="M64,3.53l.58-.08a1.35,1.35,0,0,0,.35.72.83.83,0,0,0,.59.22,1,1,0,0,0,.71-.29,1,1,0,0,0,.28-.71.91.91,0,0,0-.94-.93,1.4,1.4,0,0,0-.41.07L65.21,2h.1A1.28,1.28,0,0,0,66,1.83a.69.69,0,0,0,.3-.6.7.7,0,0,0-.22-.54A.76.76,0,0,0,65.5.48a.8.8,0,0,0-.57.21,1.12,1.12,0,0,0-.29.66l-.59-.11a1.49,1.49,0,0,1,.48-.91,1.44,1.44,0,0,1,1-.33,1.41,1.41,0,0,1,.71.17,1.19,1.19,0,0,1,.51.45,1.23,1.23,0,0,1,.17.62,1,1,0,0,1-.16.56,1.13,1.13,0,0,1-.5.4,1.08,1.08,0,0,1,.66.41,1.22,1.22,0,0,1,.24.77,1.42,1.42,0,0,1-.46,1.06,1.6,1.6,0,0,1-1.15.44,1.52,1.52,0,0,1-1.05-.38,1.47,1.47,0,0,1-.47-1m-.64.71V4.8H60.19a1.14,1.14,0,0,1,.07-.41,2.25,2.25,0,0,1,.39-.63A5,5,0,0,1,61.42,3a6.86,6.86,0,0,0,1-1,1.26,1.26,0,0,0,.28-.71A.76.76,0,0,0,62.5.73a.92.92,0,0,0-.65-.24.89.89,0,0,0-.68.25.91.91,0,0,0-.26.7l-.6-.06a1.53,1.53,0,0,1,.46-1A1.64,1.64,0,0,1,61.86,0,1.55,1.55,0,0,1,63,.38a1.28,1.28,0,0,1,.4,1,1.38,1.38,0,0,1-.12.56,2.27,2.27,0,0,1-.39.58,8.92,8.92,0,0,1-.9.85,8.43,8.43,0,0,0-.68.6,1.46,1.46,0,0,0-.25.32Zm-3.7,0V4.8H56.48a1.14,1.14,0,0,1,.07-.41,2.25,2.25,0,0,1,.39-.63A5,5,0,0,1,57.71,3a6.86,6.86,0,0,0,1-1A1.26,1.26,0,0,0,59,1.31a.76.76,0,0,0-.25-.58.92.92,0,0,0-.65-.24.89.89,0,0,0-.68.25.91.91,0,0,0-.26.7l-.6-.06a1.53,1.53,0,0,1,.46-1A1.64,1.64,0,0,1,58.15,0a1.55,1.55,0,0,1,1.09.38,1.28,1.28,0,0,1,.4,1,1.38,1.38,0,0,1-.12.56,2.27,2.27,0,0,1-.39.58,8.92,8.92,0,0,1-.9.85,8.43,8.43,0,0,0-.68.6,1.46,1.46,0,0,0-.25.32Z"/><path class="cls-1" d="M52,76.07V73.93l-1.49,2.14Zm0,1.68V76.61H50v-.54L52.13,73h.48v3.09h.65v.54h-.65v1.14Zm-4.93-1.54a1.47,1.47,0,0,0,.12.58,1.06,1.06,0,0,0,.36.42.89.89,0,0,0,.49.14.81.81,0,0,0,.64-.3,1.17,1.17,0,0,0,.27-.81,1.13,1.13,0,0,0-.26-.78.92.92,0,0,0-1.34,0,1,1,0,0,0-.28.75m2.4-2.06-.58,0a1.23,1.23,0,0,0-.22-.5.79.79,0,0,0-.6-.25.84.84,0,0,0-.49.15,1.38,1.38,0,0,0-.44.6,3,3,0,0,0-.17,1.1,1.32,1.32,0,0,1,.52-.48,1.48,1.48,0,0,1,.64-.16,1.31,1.31,0,0,1,1,.44,1.52,1.52,0,0,1,.42,1.11,1.78,1.78,0,0,1-.2.83,1.35,1.35,0,0,1-.53.6,1.43,1.43,0,0,1-.77.2,1.54,1.54,0,0,1-1.2-.54,2.76,2.76,0,0,1-.46-1.77,3.22,3.22,0,0,1,.51-2A1.52,1.52,0,0,1,48.13,73a1.33,1.33,0,0,1,.92.31A1.35,1.35,0,0,1,49.49,74.15Zm-6.76,2.34.59-.08a1.28,1.28,0,0,0,.34.72.88.88,0,0,0,.59.22,1,1,0,0,0,.71-.29,1,1,0,0,0,.28-.71.91.91,0,0,0-.94-.93,1.4,1.4,0,0,0-.41.07L44,75h.1a1.28,1.28,0,0,0,.67-.19.69.69,0,0,0,.3-.6.7.7,0,0,0-.22-.54.72.72,0,0,0-.56-.21.8.8,0,0,0-.57.21,1.12,1.12,0,0,0-.29.66l-.59-.11a1.51,1.51,0,0,1,.49-.92,1.38,1.38,0,0,1,.95-.32,1.51,1.51,0,0,1,.71.16,1.27,1.27,0,0,1,.51.46,1.23,1.23,0,0,1,.17.62,1,1,0,0,1-.16.56,1.13,1.13,0,0,1-.5.4,1.08,1.08,0,0,1,.66.41,1.2,1.2,0,0,1,.24.77,1.44,1.44,0,0,1-.46,1.06,1.59,1.59,0,0,1-1.15.43,1.51,1.51,0,0,1-1-.37,1.47,1.47,0,0,1-.47-1"/><polyline class="cls-2" points="46.81 125.72 46.81 125.4 46.81 125.06 46.79 124.75 46.74 124.44 46.69 124.1 46.64 123.79 46.55 123.47 46.48 123.16 46.35 122.85 46.23 122.56 46.11 122.27 45.97 121.98 45.8 121.69 45.63 121.4 45.46 121.14 45.27 120.9 45.05 120.63 44.84 120.39 44.62 120.15 44.38 119.94 44.14 119.72"/><line class="cls-3" x1="39.42" y1="124.44" x2="39.42" y2="117.61"/><line class="cls-3" x1="38.44" y1="125.41" x2="31.61" y2="125.41"/><line class="cls-3" x1="39.42" y1="126.39" x2="39.42" y2="133.21"/><line class="cls-3" x1="40.39" y1="125.41" x2="47.22" y2="125.41"/><path class="cls-4" d="M39.39,125.43h.51m-.51,0v.48m0-.48h-.48m.48,0v-.49"/><line class="cls-3" x1="84.71" y1="125.41" x2="44.09" y2="125.41"/><line class="cls-3" x1="16.77" y1="86.18" x2="37.08" y2="121.36"/><line class="cls-3" x1="16.77" y1="164.64" x2="37.08" y2="129.46"/><line class="cls-3" x1="84.71" y1="18.44" x2="44.1" y2="22"/><line class="cls-3" x1="39.42" y1="51.61" x2="39.42" y2="9.87"/><line class="cls-3" x1="16.11" y1="18.33" x2="37.74" y2="22.11"/><path class="cls-1" d="M83.34,81.5h-.58V75.43h1.17V81.5Zm0-2.71h-71v-.65h71Zm-71,2.71h-.58V75.43h1.16V81.5Z"/><path class="cls-1" d="M82.81,8.55h-.58V2.48H83.4V8.55Zm0-2.71H39.39V5.18H82.81ZM39.39,8.55h-.58V2.48H40V8.55Z"/><path class="cls-1" d="M2.45,50.26v-.59H8.52v1.17H2.45Zm2.71,0V10.86h.65v39.4ZM2.45,10.86v-.58H8.52v1.16H2.45Z"/><path class="cls-4" d="M82.81,12.71v0l0,.1V13l0,.25,0,.28,0,.37,0,.4.05.46,0,.51,0,.55.05.56,0,.6,0,.62,0,.63.07.65,0,.63,0,.62.05.61.08.55,0,.55,0,.51,0,.46,0,.41,0,.36,0,.29,0,.24v.17l0,.09v.05M45.73,25l0-.57-.07-.61,0-.62-.05-.65-.07-.65,0-.65,0-.65L45.27,20l-.05-.6,0-.58m2.7,8.79h0l-.1-.1-.09-.12-.12-.09L47.34,27l-.19-.24-.19-.2-.34-.41L46.45,26l-.22-.27-.5-.7m-.56-6.21.15-.29.24-.48.22-.41.26-.46.1-.17.24-.38.24-.36.14-.22.05-.1,0,0v0M17.19,24.05l.55,0,.53-.1.51-.17.51-.24.48-.29.46-.36.4-.41L21,22l.33-.5.29-.53.22-.56.19-.6.1-.6.07-.63V18l-.07-.6-.12-.6-.2-.56-.21-.53-.29-.5L21,14.71l-.38-.41-.41-.36-.46-.29-.48-.24-.51-.17-.53-.1-.53,0-.53,0-.53.1-.53.17-.48.24-.48.29-.46.36-.41.41-.38.46-.34.5-.26.53-.25.56-.16.6-.12.6-.05.6v.63l.07.6.12.6.17.56.24.53.29.5.34.46.36.41.43.36.46.29.48.24.51.17.5.1Zm0,.39.55-.05.53-.09.56-.17.5-.24.51-.29.48-.36.43-.41.41-.46.34-.51.31-.55.27-.55.19-.61.15-.62.09-.63,0-.65,0-.63L22.42,17l-.15-.6-.21-.56-.27-.55-.31-.51-.36-.46-.39-.4-.46-.37-.45-.28L19.31,13l-.53-.16-.53-.1-.55,0-.56,0-.55.1-.53.16-.53.25-.51.28-.45.37-.44.4-.41.46-.36.51-.31.55-.24.56-.22.6-.14.62-.08.63,0,.65,0,.63.1.62.14.61.2.55.26.55.32.51.36.46.41.41.43.36.48.29.51.24.5.17.56.09ZM40.55,25l-.48.51-.46.36-.46.36-.38.24-.31.17-.41.22-.68.29-.34.12-.65.19-.41.07-.43.05h-.77l-.34-.07m6.41-8.72.24.58.19.6.12.63.08.65v.65l0,.65-.12.65-.2.62-.24.61-.31.57m-4.09-9,.29.05.31.09.53.17.58.27.69.41.44.31.31.24.19.19.53.51.27.29.24.31m-9,24.68,0,.08-.12.21-.07.22-.09.22-.08.21m0,0,.17.46.22.48m1.4-2.79h-.85m0,0-.29.46-.26.45m.55,2.8h.85m-1.4-.92,0,0,.24.43.29.44m1.86-3.71h-1m0,3.71h1m-1-3.71.19,0,.21,0,.2.07.19.1.17.14.17.17.14.17.12.19m-2.79,0,.12-.19.12-.17.17-.17.17-.14.19-.1.19-.07.22,0,.22,0m-1.4,2.79-.1-.21-.07-.24-.05-.25v-.48l.05-.24.07-.21.1-.25m1.4,2.8H33l-.22,0-.19-.1L32.39,46l-.17-.15-.17-.14-.12-.19-.12-.2m1.4.92h.19l.21,0,.2-.1L34,46l.17-.15.17-.14.14-.19.12-.2M35,42.55,36,44.4M35,42.55h-.82m.38.91-.05,0L34.36,43l-.14-.43m0,3.71.17-.46.21-.46m.44.92h-.82M36,44.4,35,46.26M36,44.4h-.82m-.53.94,0-.07.24-.43.26-.44m0,0L34.84,44l-.24-.49m0,0,.07.25.08.21,0,.24,0,.24,0,.24,0,.25-.08.24-.07.21m17.22-1.88v-.91m0,0h-.17m.17,3.71h0v-.92m-.17.92h.17m0-.92V43.46M50,44.4V42.55m1.64,0,.12.46,0,.45M50,42.55h1.64m.17.91v.08l0,.21,0,.22-.07.22-.05.21m0,0,.12.46,0,.48M50,44.4h1.64M50,46.26V44.4m0,1.86h1.64m.17-.92v0l0,.43-.12.44M34.07,42.55l.17-.15.17-.12m-.1,4,.1.05.41.14.19.07m2-3.47-.07,0-.07,0-.1-.05-.07,0-.15-.07-.09,0-.12-.05-.05,0h0m0,0-.38-.17-.41-.14-.19-.08m-.87,0h.87m-.39.27-.07,0-.29-.14-.12-.08m.75.39-.1-.05M35,46.52h.87m0,0,.21-.17.32-.24.31-.26m0,0,.05-.05.24-.26.22-.25.07-.12M35,46.52l.12-.17.22-.24.26-.26m.53-2.8-.48-.19-.48-.19h0m.45,3.18,0-.05.29-.26.34-.25.17-.12m-1.38-2.55.08.05m-.08,3.52.17-.1.17-.1.19-.14m0,0,.15-.17.14-.19.1-.2.09-.21,0-.24,0-.24v-.24l0-.25m0,0-.05-.24-.07-.21-.1-.22-.12-.22-.14-.17-.15-.14-.19-.14-.19-.1m1.3,2.5h.84m0,0,0-.5,0-.53,0,0m0,0V44l0-.09,0-.12,0-.1,0-.12,0-.12,0-.1,0-.12L37,43.05m-.87,0H37m-.84,1.06,0-.43v-.63m.32,2.12-.17-.5-.12-.53v0m12.86,2v.12m-2.22,0h0v-.12M49,43v-.41m-.12-.15,0,0-.07-.08m-2,.68v-.41m.12-.15,0,0,.07-.08m-.24,3.86,0,.17.12.14.07.07m1.74,0H47.05m2-.38-.05.17-.12.14-.07.07M49,43v-.05L49,42.67l-.12-.27-.07-.12m0,0H47.05m-.24.68v-.05l0-.24L47,42.4l.07-.12m-.24,3.86V44.69m.24,1.06-.17.19-.07.2M49,44.69v1.45m-.24-.39.16.19.08.2M49,43v1.73m-.24-1.06.09-.17.12-.24L49,43m-2.22,1.73V43m.24.67L47,43.46l-.1-.24,0-.26m2,.67H47.05m0,0-.17.51-.07.55m0,0,0,.22,0,.24,0,.22.07.21.05.1,0,.07m1.74,0H47.05m2-1.06-.05.46-.12.43-.07.17m0-2.12.16.51.08.55M32.1,10.86H46.35m0,0h.37m.09,39.4H32m0-38h0v-.08l0-.19,0-.26v-.44m14.69,0,0,.34,0,.26v.22l0,.15m-.07-1H32.05M46.81,43v.07l-.05.24,0,.34,0,.41v.46l0,.43,0,.39,0,.26,0,.12m36-33-36,3.16m1,11.7,36-3.13m-67.43-.07,18,3.15m2-11.58-18-3.16M49,45.63h1m-3.22,0h0m0-2.45h0m3.22,0H49m-.12,3.22.12-.14m-2.22,0,.12.14M49,42.55l-.12-.15m-2,0-.12.15m-.09-31.31v-.38m-14.62,0v.38m14.71,39v-4m0-3.71V26.41m0-10.5v-3.7M32,45.68v4.58m0-23.17v16m0-30.92v2.93"/><path class="cls-4" d="M83.8,125.43V124.2l0-.58,0-.58,0-.53,0-.5,0-.46-.05-.41,0-.36,0-.32-.05-.21,0-.17,0-.12,0,0-.07,0,0,.12,0,.17-.05.21,0,.32,0,.36,0,.41L83,122l0,.5,0,.53,0,.58,0,.58v2.45l0,.58,0,.58,0,.53,0,.51.05.45,0,.41,0,.36,0,.29.05.24,0,.17,0,.1.07,0,0,0,0-.1,0-.17.05-.24,0-.29,0-.36.05-.41,0-.45,0-.51,0-.53,0-.58,0-.58v-1.22Zm0,0v-.65l0-.63v-.6l0-.6,0-.56,0-.53,0-.48,0-.43,0-.39,0-.34-.08-.26-.05-.19,0-.15,0-.07H83.3l0,.07,0,.15,0,.19-.05.26,0,.34,0,.39-.05.43,0,.48,0,.53,0,.56,0,.6v.6l0,.63v1.27l0,.63v.62l0,.58,0,.58,0,.53,0,.48.05.44,0,.38,0,.34.05.26,0,.2,0,.14,0,.07h.07l0-.07,0-.14.05-.2.08-.26,0-.34,0-.38,0-.44,0-.48,0-.53,0-.58,0-.58v-.62l0-.63ZM45.44,131.3l0,0,0-.12-.07-.2-.05-.24,0-.31m0-10,0-.31.05-.27.07-.17,0-.12,0,0m-.27,10.86.15-.19.24-.36.22-.36L46,129l.1-.22.24-.62.24-.73.14-.72.05-.5,0-.34v-.77l0-.51-.05-.36,0-.31-.12-.55-.17-.56-.24-.65-.2-.41-.14-.26-.1-.2-.29-.43-.14-.22-.15-.19M17.19,87l-.53.31-.5.31-.51.29-.48.31-.46.29-.43.29-.36.24-.34.24-.29.22-.24.19-.17.17-.12.12-.07.1v.07l.05,0h.12L13,90.1l.25-.08.26-.09.34-.15.38-.16.41-.2.46-.24.48-.24.48-.26.53-.29.53-.29.53-.31.53-.32.53-.31.51-.29.48-.31.46-.29.41-.29.38-.24.34-.24.29-.22.21-.19.2-.17.12-.12.07-.1v-.07l-.07,0H22l-.19,0-.22.08-.29.09L21,85l-.37.17-.4.21-.46.22-.48.24-.51.27-.51.28-.53.29Zm0,0-.55.32-.56.31-.5.34-.51.31-.48.29-.43.29-.41.29-.36.24-.32.24-.26.19-.2.19-.14.15-.1.12,0,.07,0,0,.08,0,.14,0,.22-.07.24-.08.31-.14.36-.15.41-.19.44-.19.45-.24.51-.27.53-.26.53-.31.55-.29.56-.34.55-.31.53-.32.53-.31.51-.31.45-.32.46-.28.39-.29.36-.24.31-.25.27-.19.21-.19.15-.15.09-.09,0-.1,0,0h-.24l-.19.08-.27.09-.31.12-.34.15-.41.19-.43.22-.48.21-.51.27-.5.29-.56.29-.53.31Zm24.28,30.3v.07l-.08.12-.12.12-.19.19-.24.2m-8.65,5-.29.12-.24.07-.19,0h-.12l-.07,0m9.56-5.2-.22,0-.43,0h-.43l-.58,0-.24,0-.65.1-.77.17-.68.24-.46.19-.33.17-.65.36-.41.29-.29.22-.27.19-.41.38-.41.44-.43.53-.26.36-.15.26-.12.2-.24.45-.12.22-.1.24m-.91,4.79.07,0h.12l.19,0,.24.07.29.12m8.65,5,.24.19.19.17.12.14.08.1v.07m-9.28-5.66.1.19.19.41.2.36.31.51.14.19.41.51.53.58.56.45.38.32.31.19L36,132l.46.25.32.12.31.12.53.16.58.15.69.12.44,0,.31,0h.19l.53,0,.27,0,.24,0m-23.65,31,.55.31.53.32.56.28.5.29.51.24.48.24.43.22.41.19.34.15.31.12.27.1.19,0,.15,0h.09l0-.05,0-.1-.09-.12-.15-.14-.21-.17-.27-.22-.31-.21-.36-.27-.39-.26-.46-.29-.45-.32-.51-.31-.53-.31-.53-.31L17.7,163l-.56-.32-.55-.31-.53-.29-.53-.26-.51-.27-.45-.24-.44-.21-.41-.17-.36-.17-.31-.12-.24-.1-.22-.05-.14,0-.08,0,0,.05,0,.07.1.12.14.15.2.17.26.21.32.24.36.25.41.26.43.31.48.29.51.32.5.31.56.34Zm0,0,.55.32.53.29.51.29.51.26.48.24.46.22.4.19.37.19.33.12.29.12.22.08.19,0h.1l.07,0v-.07l-.07-.1-.12-.12-.2-.17-.21-.19-.29-.22-.34-.24-.38-.26-.41-.27-.46-.29-.48-.31-.51-.31-.53-.31-.53-.32-.53-.29-.53-.29-.53-.28-.48-.27-.48-.26-.46-.22-.41-.19-.38-.17-.34-.15-.26-.09-.25-.1-.16,0-.12,0-.05,0v.05l.07.09.12.15.17.14.24.2.29.21.34.24.36.27.43.29.46.29.48.29.51.31.5.31Zm19.07-31.71.1.05m0,0-.05-.05h0m0,0-.14-.07m10.69-7.35v-.09m0,0v.07m0,0,0,.17m-11.71-5.59-.09,0m0,0,0,0h0m0,0,.12-.09m11.1,8.47.2-.67.12-.7,0-.7,0-.7-.07-.72-.15-.67-.21-.68-.29-.65-.34-.62-.38-.58-.46-.56-.51-.48-.55-.45-.58-.39-.62-.34-.66-.26-.67-.22-.7-.12-.7-.07-.72,0-.7.08-.7.14-.67.19-.65.27-.63.31-.6.39-.55.43-.51.51-.46.53-.4.57-.34.63-.29.65-.22.65-.17.7-.07.7,0,.7,0,.72.09.7.19.67.25.68.31.62.36.6.43.56.48.53.53.48.56.41.62.36.63.29.68.24.67.19.7.1.72.05.7-.05.7-.1.7-.17.65-.21.65-.29.6-.36.58-.41.53-.48.48-.51.43-.55.39-.61.31-.62Zm-14.3-3.27.14-.72.2-.7.29-.68.33-.65.39-.62.48-.58.51-.53.55-.46.63-.41.62-.36.7-.29.7-.19.72-.15L39,118h.75l.72.09.72.15.7.19.68.29.65.36.6.41.58.46.5.53.46.58.41.62.34.65.26.68.22.7.12.72m0,2-.12.72-.22.72-.26.68-.34.65-.41.62-.46.56-.5.53-.58.48-.6.41-.65.34-.68.29-.7.21-.72.15-.72.07H39l-.72-.07-.72-.15-.7-.21-.7-.29-.62-.34-.63-.41-.55-.48-.51-.53-.48-.56-.39-.62-.33-.65-.29-.68-.2-.72-.14-.72m0-2v.07l0,.15,0,.24v.94l0,.26,0,.19v.1m0,0h.1m0-2h-.1m14.69,2,0,0,0-.14v-.27l0-.29V125l0-.26,0-.19v-.08l0,0m0,0h-.1m0,2h.1m36.6-6.84H45.44m0,11.75h37.9m-71-41,18.93,32.83m10.19-5.9L22.54,84.44m0,82,18.93-32.82m-10.19-5.88L12.35,160.54m22.32-29.41,0,.05m2.14,1.23,0,0m9.9-5.71h0m0-2.48h0m-9.9-5.7,0,0m-2.14,1.23,0,0m2.27-1.28v0"/><path class="cls-1" d="M62.41,20.38l.05.58-6.05.55-.1-1.16,6-.54Zm-2.91.2,0,.53-.24.16-.05-.53Zm0,.53v0Zm0,0,0,.53-.24.08,0-.53.24-.12Zm0,.53v0Zm0,0v.53h-.25v-.53l.24,0Zm0,.53v.53h-.25v-.53Zm0,.53v.53h-.25v-.53Zm0,.53v0Zm0,.08,0,.53-.23-.16.05-.53.24.08Zm-.28.41v0Zm.24.08,0,.53-.24-.08,0-.53v0Zm0,.53v0Zm0,.07-.08.53-.22-.23.07-.53.23.16Zm-.08.53Zm0,0-.07.51-.23-.23.08-.51.22.23Zm-.3.28Zm.23.23-.07.53-.23-.23.07-.53h0Zm-.07.53v0Zm0,.06-.12.51-.21-.36.12-.5.22.29Zm-.33.18h0v0Zm.21.29-.09.53-.22-.29.1-.53v0Zm-.09.53v0Zm0,0-.12.5-.2-.35.12-.51.21.32Zm-.12.5v0h0Zm0,0-.14.51-.19-.4.14-.51.2.38Zm-.14.51h0Zm0,0-.16.51-.18-.44.16-.51.19.42Zm-.16.51-.17.5-.18-.44.17-.5Zm-.17.5-.17.51-.18-.44.17-.51.18.44Zm-.17.51h0v0Zm0,0-.19.48-.17-.48.2-.48.17.46Zm-.19.48h0Zm0,0-.21.48-.16-.5.22-.48.16.49Zm-.21.48-.22.49-.16-.51.22-.48Zm-.22.48-.22.49-.15-.51.21-.48Zm-.22.49h0Zm0,0-.24.46L57,31.61l.25-.45.14.52Zm-.24.46Zm0,0-.26.48-.14-.54.27-.48.13.54Zm-.26.48h0Zm0,0-.26.46-.13-.55.26-.46.14.54Zm-.26.46Zm0,0-.29.43L56.22,33l.29-.44.12.57Zm-.29.43-.28.43-.12-.57.29-.43Zm-.28.43-.29.44-.12-.58.29-.43.12.57Zm-.29.44h0Zm0,0-.31.44-.11-.59.31-.43.12.58Zm-.31.44Zm0,0-.33.41-.1-.59.33-.41.11.59Zm-.33.41-.34.41-.1-.6.34-.4Zm-.34.41-.34.41-.1-.6.34-.41Zm-.34.41Zm0,0-.36.38L54,35.86l.36-.38.09.6Zm-.36.38-.37.39-.08-.61.36-.39Zm-.37.39Zm0,0-.39.36-.07-.61.38-.37.08.62Zm-.39.36-.38.36L52.84,37l.39-.36Zm-.38.36-.39.37-.07-.62.38-.36Zm-.39.37Zm0,0-.41.34-.07-.63.41-.34.07.63Zm-.41.34Zm0,0-.41.31L51.64,38l.41-.31.07.63Zm-.41.31Zm0,0-.44.32-.06-.64.43-.31.07.63Zm-.44.32-.43.31-.06-.63.43-.32Zm-.43.31Zm0,0-.44.29,0-.64.43-.28.06.63Zm-.44.29-.43.29-.06-.64.44-.29Zm-.43.29Zm0,0-.46.27,0-.64.46-.27,0,.64Zm-.46.27-.46.26,0-.64.46-.26h0Zm-.46.26Zm0,0-.48.24,0-.64L49,39.7l0,.64Zm-.53-.4Zm0,.64-.46.24,0-.64.46-.24h0Zm-.46.24h0Zm0,0-.48.21,0-.64.48-.22,0,.64Zm-.48.21-.49.22,0-.65.49-.21Zm-.49.22Zm0,0-.5.19,0-.64.51-.2,0,.65Zm-.54-.45Zm0,.64-.49.19,0-.64.48-.19h0Zm-.49.19Zm0,0-.5.16,0-.64.5-.17,0,.64Zm-.5.16-.51.17,0-.65.51-.16Zm-.51.17Zm0,0-.51.12,0-.65.51-.12,0,.65Zm-.53-.53Zm0,.65-.5.15,0-.65.51-.15h0Zm-.5.15Zm0,0-.53.12,0-.65.53-.12,0,.65Zm-.53.12Zm0,0-.5.1,0-.66.51-.09v.65Zm-.5.1Zm0,0-.53.09,0-.65.53-.1,0,.66Zm-.53.09Zm0,0-.51.08V42l.5-.07,0,.65Zm-.51.08Zm0,0-.53.07v-.66L42,42v.66Zm-.53.07Zm0,0-.53,0V42.1l.53-.05v.66Zm-.53,0Zm0,0-.53,0v-.65l.53,0v.66Zm-.53,0-.53,0v-.65l.53,0Zm-.53,0Zm0,0h-.53v-.65h.53v.65Zm-.53,2.71h-.58V39.44H40v6.07Z"/></g></g></svg>