<svg xmlns="http://www.w3.org/2000/svg" viewBox="0 0 87.82 101.59"><defs><style>.cls-1,.cls-4{fill:#373435;}.cls-2,.cls-3{fill:none;stroke:#000;stroke-linecap:round;stroke-linejoin:round;stroke-width:0.25px;}.cls-2{stroke-dasharray:8.31 8.31 8.31 8.31;}.cls-4{fill-rule:evenodd;}</style></defs><g id="Layer_2" data-name="Layer 2"><g id="Layer_1-2" data-name="Layer 1"><path class="cls-1" d="M4.24,24.33H4.8v3.16a1.13,1.13,0,0,1-.41-.06,2.29,2.29,0,0,1-.63-.4A4.9,4.9,0,0,1,3,26.27a7,7,0,0,0-1-1.06,1.24,1.24,0,0,0-.71-.27.76.76,0,0,0-.58.25.88.88,0,0,0-.24.65.91.91,0,0,0,.25.68.94.94,0,0,0,.7.26l-.06.6a1.49,1.49,0,0,1-1-.47A1.59,1.59,0,0,1,0,25.83a1.54,1.54,0,0,1,.38-1.09,1.24,1.24,0,0,1,1-.4,1.38,1.38,0,0,1,.56.12,1.84,1.84,0,0,1,.58.39,8.92,8.92,0,0,1,.85.9,8.43,8.43,0,0,0,.6.68,1.41,1.41,0,0,0,.32.24Zm-1.8,6.19A3,3,0,0,0,4,30.24a.81.81,0,0,0,.39-.68A.86.86,0,0,0,4,28.88a3.08,3.08,0,0,0-1.57-.27,3.05,3.05,0,0,0-1.57.27.81.81,0,0,0-.38.69.75.75,0,0,0,.34.65,3,3,0,0,0,1.61.3m0,.6a4.29,4.29,0,0,1-1.37-.18,1.62,1.62,0,0,1-.79-.52A1.27,1.27,0,0,1,0,29.56a1.44,1.44,0,0,1,.15-.67,1.47,1.47,0,0,1,.45-.48,2.45,2.45,0,0,1,.71-.3A4.9,4.9,0,0,1,2.44,28a4.56,4.56,0,0,1,1.36.17,1.69,1.69,0,0,1,.8.52,1.35,1.35,0,0,1,.28.86,1.3,1.3,0,0,1-.5,1.08A3.1,3.1,0,0,1,2.44,31.12Zm1.8.63H4.8v3.16a1.13,1.13,0,0,1-.41-.06,2.29,2.29,0,0,1-.63-.4A4.9,4.9,0,0,1,3,33.69a7,7,0,0,0-1-1.06,1.24,1.24,0,0,0-.71-.27.76.76,0,0,0-.58.25.88.88,0,0,0-.24.65.91.91,0,0,0,.25.68.94.94,0,0,0,.7.26l-.06.6a1.49,1.49,0,0,1-1-.47A1.59,1.59,0,0,1,0,33.25a1.54,1.54,0,0,1,.38-1.09,1.24,1.24,0,0,1,1-.4,1.38,1.38,0,0,1,.56.12,2,2,0,0,1,.58.39,8.92,8.92,0,0,1,.85.9,8.43,8.43,0,0,0,.6.68,1.41,1.41,0,0,0,.32.24Z"/><path class="cls-1" d="M42.63,30.44a.55.55,0,0,0,.41.1.54.54,0,0,0,.36-.23.48.48,0,0,0,.1-.4.53.53,0,0,0-.22-.36.5.5,0,0,0-.41-.1.53.53,0,0,0-.36.22.54.54,0,0,0-.1.41.57.57,0,0,0,.22.36m-.21.28a.86.86,0,0,1-.36-.59.87.87,0,0,1,.16-.66.93.93,0,0,1,.59-.38.88.88,0,0,1,.67.17.86.86,0,0,1,.37.59.87.87,0,0,1-.16.68.93.93,0,0,1-1.27.19Zm-.07,4.7.33-.52a1.19,1.19,0,0,0,.73.14.9.9,0,0,0,.54-.36.92.92,0,0,0,.16-.77,1.21,1.21,0,0,0-.52-.73,1.06,1.06,0,0,0-.8-.24,1,1,0,0,0-.67.42,1.08,1.08,0,0,0-.2.5,1.12,1.12,0,0,0,.07.48l-.39.4-1.72-1.81L41.28,31l.45.33-1.12,1.54.9,1a1.51,1.51,0,0,1,.28-.9,1.41,1.41,0,0,1,1-.6,1.49,1.49,0,0,1,1.15.3,1.81,1.81,0,0,1,.69,1A1.56,1.56,0,0,1,44.34,35a1.51,1.51,0,0,1-.92.64,1.42,1.42,0,0,1-1.07-.18m-2.3-.16a1.18,1.18,0,0,0-.81-.25.87.87,0,0,0-.62.35.94.94,0,0,0-.14.74,1.16,1.16,0,0,0,.5.71,1.06,1.06,0,0,0,.76.22.89.89,0,0,0,.63-.39.81.81,0,0,0,.16-.7,1.14,1.14,0,0,0-.48-.68m.3,3.18.29-.48a.93.93,0,0,0,.62.11.69.69,0,0,0,.45-.31.86.86,0,0,0,.18-.46,1,1,0,0,0-.07-.46,1.65,1.65,0,0,0-.33-.5,2.52,2.52,0,0,0-.53-.5l-.09-.06a1.27,1.27,0,0,1,.08.65,1.22,1.22,0,0,1-.24.63,1.3,1.3,0,0,1-.94.56,1.5,1.5,0,0,1-1.15-.33,1.56,1.56,0,0,1-.7-1,1.44,1.44,0,0,1,.27-1.13,1.5,1.5,0,0,1,.7-.54,1.54,1.54,0,0,1,.93-.05,3.61,3.61,0,0,1,1.2.62,4.16,4.16,0,0,1,1.06,1,1.58,1.58,0,0,1,.32,1,1.5,1.5,0,0,1-.3.91,1.38,1.38,0,0,1-.79.56A1.4,1.4,0,0,1,40.35,38.44Z"/><path class="cls-1" d="M53.15,3.42a1,1,0,0,0,.12.48.78.78,0,0,0,.35.37,1.06,1.06,0,0,0,.5.13,1,1,0,0,0,.7-.28.91.91,0,0,0,.27-.68.93.93,0,0,0-.28-.7,1,1,0,0,0-.71-.28.94.94,0,0,0-.68.28.91.91,0,0,0-.27.68m.19-2.21a.79.79,0,0,0,.21.56.81.81,0,0,0,.58.21.74.74,0,0,0,.77-.74A.77.77,0,0,0,54.68.7a.76.76,0,0,0-.56-.22.78.78,0,0,0-.56.21A.7.7,0,0,0,53.34,1.21Zm.12,1a1.22,1.22,0,0,1-.55-.38,1.08,1.08,0,0,1-.17-.6,1.2,1.2,0,0,1,.37-.88,1.6,1.6,0,0,1,2,0,1.21,1.21,0,0,1,.38.89,1,1,0,0,1-.18.58,1.18,1.18,0,0,1-.52.38,1.24,1.24,0,0,1,.66.46,1.22,1.22,0,0,1,.23.76,1.4,1.4,0,0,1-.43,1,1.76,1.76,0,0,1-2.28,0,1.39,1.39,0,0,1-.43-1,1.21,1.21,0,0,1,.24-.78A1.08,1.08,0,0,1,53.46,2.21Zm-2.74.91V1L49.23,3.12Zm0,1.68V3.66H48.64V3.12L50.83,0h.48v3.1H52v.54h-.64V4.8Zm-2.51-.56V4.8H45.05a1,1,0,0,1,.07-.41,2,2,0,0,1,.39-.63A4.59,4.59,0,0,1,46.28,3a7.38,7.38,0,0,0,1-1,1.24,1.24,0,0,0,.27-.71.78.78,0,0,0-.24-.58A1,1,0,0,0,46,.74a.94.94,0,0,0-.26.7l-.6-.06a1.49,1.49,0,0,1,.47-1A1.62,1.62,0,0,1,46.72,0,1.51,1.51,0,0,1,47.8.38a1.24,1.24,0,0,1,.4,1,1.38,1.38,0,0,1-.12.56,2,2,0,0,1-.38.58,8.92,8.92,0,0,1-.9.85,6.91,6.91,0,0,0-.68.6,1.46,1.46,0,0,0-.25.32Z"/><path class="cls-1" d="M51.34,21.46l0,.58-6.06.45-.08-1.16,6-.45Zm-2.79.19,0,.48-.47.06,0-.47Zm-.44.54h0v0Zm.47-.07,0,.46-.48.07,0-.46h0Zm0,.46h0Zm0,0v.48l-.47,0,0-.47.48-.06Zm0,.48h0Zm0,0v.48h-.48v-.48h.48Zm0,.48v.48h-.48v-.48Zm0,.48Zm0,0v.48l-.48,0,0-.48.48,0Zm0,.48,0,.48-.48,0,0-.47Zm0,.48Zm0,0,0,.48-.47-.07,0-.47.48.05Zm0,.48h0Zm0,0-.05.45-.47-.1.05-.46.47.09Zm-.52.35h0v0Zm.47.1,0,.48-.48-.1.06-.48h0Zm0,.48Zm0,0-.07.48-.46-.13.07-.48.47.12Zm-.07.48Zm0,0-.07.46-.47-.13.08-.46.46.13Zm-.07.46h0Zm0,0-.09.48-.46-.16.09-.48.46.15Zm-.09.48Zm0,0-.09.46-.46-.16.09-.46.46.16Zm-.09.46h0Zm0,0-.11.46-.45-.2.1-.46.46.18Zm-.11.46h0Zm0,0-.12.46-.45-.23.12-.46.45.22Zm-.12.46-.13.46-.44-.23.12-.46h0Zm-.13.46h0Zm0,0-.14.46L47.19,30l.14-.46.44.24Zm-.14.46-.14.46-.44-.25.14-.46Zm-.14.46h0Zm0,0-.16.44-.43-.29.16-.44.44.27Zm-.16.44-.16.44-.42-.29.15-.44.43.29Zm-.16.44Zm0,0-.18.44-.42-.31.18-.44.42.3Zm-.18.44-.17.44-.42-.31.17-.44.42.31Zm-.17.44h0Zm0,0-.19.45-.41-.34.19-.44.42.32Zm-.19.45h0Zm0,0-.21.42L46,33l.22-.43.4.36Zm-.21.42-.21.43-.4-.37L46,33h0Zm-.21.43-.21.42-.4-.37.21-.42.4.37Zm-.21.42h0Zm0,0-.23.42-.38-.39.23-.42.39.38Zm-.23.42v0h0Zm0,0-.24.4-.37-.42.25-.4.37.4Zm-.24.4-.25.41-.37-.42.25-.4h0Zm-.25.41Zm0,0-.25.38-.36-.43.25-.38.36.42Zm-.25.38h0Zm0,0-.27.4-.35-.43.26-.41.36.43Zm-.27.4h0Zm0,0-.28.38-.34-.46.28-.39.35.45Zm-.28.38Zm0,0-.29.37-.33-.47.29-.37.33.46Zm-.62-.1Zm.34.46-.28.39L43.52,37l.28-.39h0Zm-.28.39h0Zm0,0-.3.37-.32-.48.3-.37.33.47Zm-.3.37h0Zm0,0-.3.35-.31-.49.3-.36.32.49Zm-.3.35h0l0-.06Zm0,0-.31.37-.31-.5.31-.37.31.5Zm-.31.37h0Zm0,0-.32.34-.29-.52.31-.34.31.51Zm-.32.34Zm0,0-.34.35L42,38.74l.34-.35.29.52Zm-.34.35Zm0,0-.34.33-.28-.53.34-.33.28.52Zm-.34.33h0Zm0,0-.34.31-.27-.53.34-.32.27.53Zm-.61-.22Zm.27.53-.35.34L41,39.72l.35-.33h0Zm-.35.34Zm0,0-.35.3L40.62,40l.35-.3.26.55Zm-.6-.26Zm.25.56-.37.31-.25-.55.37-.32h0Zm-.37.31h0Zm0,0-.37.3-.24-.57.37-.29.25.55Zm-.37.3Zm0,0-.37.28-.23-.57.37-.28.23.57Zm-.37.28h0Zm0,0-.38.28-.23-.58.39-.28.23.57Zm-.38.28L39,42l-.23-.58.39-.28ZM39,42h0Zm0,0-.39.26-.21-.59.39-.26L39,42Zm-.39.26Zm0,0-.4.24L38,42l.41-.25.2.59Zm-.4.24-.41.25-.19-.6L38,42h0Zm-.41.25-.4.25-.2-.6.41-.25Zm-.4.25Zm0,0-.4.23-.19-.61.41-.22.19.6Zm-.4.23Zm0,0-.43.22-.16-.62.42-.21.18.61Zm-.43.22-.42.21-.16-.62.42-.21Zm-.42.21-.42.21-.17-.62.43-.21Zm-.42.21h0Zm0,0-.44.2-.15-.62.44-.2.16.62Zm-.44.2h0Zm0,0-.44.18-.13-.63.44-.18.14.63Zm-.44.18-.44.17-.13-.63.44-.17Zm-.44.17Zm0,0-.44.16L33.75,44l.44-.16.13.63Zm-.44.16-.44.16-.12-.63.44-.16.12.63Zm-.44.16h0Zm0,0L33,45l-.1-.64.46-.14.11.63ZM33,45l-.45.14-.11-.64.46-.14Zm-.45.14h0Zm0,0-.46.12L32,44.57l.46-.12.1.64Zm-.46.12-.46.13-.09-.65.46-.12Zm-.46.13Zm0,0-.46.1L31,44.8l.46-.11.08.65Zm-.46.1h0Zm0,0-.46.08-.06-.64L31,44.8l.08.64Zm-.46.08Zm0,0-.47.09L30.11,45l.48-.08.06.64ZM30.11,45Zm.07.65-.46.09-.07-.65.46-.09h0Zm-.46.09h0Zm0,0-.47,0,0-.65.48,0,0,.65Zm-.52-.6h0Zm.05.65-.47.07-.05-.65.47-.07h0Zm-.47.07h0Zm0,0-.48,0,0-.65.48,0,0,.65Zm-.51-.62Zm0,.65-.46,0,0-.66.46,0h0Zm-.46,0Zm0,0-.48,0,0-.65.48,0,0,.66Zm-.48,0Zm0,0h-.47v-.65h.47v.65Zm-.48-.65Zm0,.65-.47,0,0-.65.48,0h0Zm-.37,2.73-.58,0-.22-6.07,1.16,0,.22,6.06Z"/><line class="cls-2" x1="24.77" y1="84.07" x2="24.77" y2="71.37"/><line class="cls-2" x1="23.77" y1="85.07" x2="11.78" y2="85.07"/><line class="cls-2" x1="24.77" y1="86.07" x2="24.77" y2="98.07"/><line class="cls-2" x1="25.77" y1="85.07" x2="37.77" y2="85.07"/><path class="cls-3" d="M24.76,85.08h.5m-.5,0v.49m0-.49h-.49m.49,0v-.49"/><line class="cls-2" x1="75.81" y1="18.14" x2="34.97" y2="21.71"/><line class="cls-2" x1="24.77" y1="51.7" x2="24.77" y2="9.71"/><line class="cls-2" x1="75.81" y1="85.07" x2="34.97" y2="85.07"/><path class="cls-1" d="M74.29,8.34h-.58V2.27h1.16V8.34Zm0-2.71H24.77V5H74.29ZM24.77,8.34h-.58V2.27h1.16V8.34Z"/><path class="cls-1" d="M2.26,50.7v-.58H8.33v1.16H2.26Zm2.8,0V10.32h.48V50.7ZM2.26,10.32V9.73H8.33V10.9H2.26Z"/><path class="cls-3" d="M37.46,50.71H12.07m0-39v-.28l0-.27v-.44m25.33,0v.85l0,.14m0-1H12.1M37.46,43.32v.07l0,.23,0,.35,0,.43v.91l0,.39V46l0,.14v0M12.26,10.33H36.63m0,0h.64m37,1.9v.11l0,.14,0,.21,0,.25,0,.3,0,.35,0,.4,0,.43.05.47,0,.51,0,.53.05.57.06.56,0,.58.05.59.06.6.05.58L75,20l.06.57,0,.53,0,.51,0,.46,0,.44,0,.4,0,.35,0,.3,0,.25,0,.2v.26m-39.18-.46v-.05l0-.58-.06-.6L36,21.93l0-.49m2.51,6h0l0,0-.09-.11-.1-.1-.11-.11-.23-.24-.21-.25-.18-.21L37.14,26,37,25.81l-.23-.28-.25-.36M14.43,43.76l0,.07-.1.21-.09.23-.09.21-.07.23m0,0,.16.46.23.5m1.43-2.86H15m0,0-.3.46-.26.49M15,46.62h.87m-1.43-.95,0,.07.25.44.28.44m1.91-3.81h-1m0,3.81h1m-1-3.81.21,0,.21.05.21.07.2.11.17.14.16.17.14.18.13.21m-2.86,0,.12-.21.14-.18.16-.17.18-.14.19-.11.21-.07.22-.05.21,0m-1.43,2.86-.11-.23-.07-.23,0-.25,0-.25,0-.24,0-.25.07-.23.11-.23m1.43,2.86-.21,0-.22-.05-.21-.07L15,46.35l-.18-.12-.16-.18-.14-.17-.12-.21m1.43.95.21,0,.21-.05.21-.07.2-.13.17-.12.16-.18.14-.17.13-.21m.44-2.86.95,1.9m-.95-1.9H16.9m.39.95,0-.07-.19-.44-.16-.44m0,3.81.16-.48.23-.47m.44.95H16.9m1.78-1.91-.95,1.91m.95-1.91h-.83m-.56,1,0-.07.11-.22.14-.22.12-.23.16-.22m0,0-.3-.47-.26-.48m0,0,.08.23.07.23,0,.25,0,.24,0,.25,0,.25-.07.23-.08.23m25.3-1.91v-.95m0,0h-.17m.17,3.81v-.95m-.17.95h.17m0-.95V43.76m-1.85,1v-1.9m1.68,0,.12.46.05.49m-1.85-.95h1.68m.17.95V44l0,.23,0,.21-.07.23m-1.68,1.91V44.71m1.68,0,.12.46.05.5m-1.85-1h1.68m-1.68,1.91h1.68m.17-.95v.07l-.05.44-.12.44m-2.68-3.79v0l0,0m-2.26,0v0l0,0m2.26,3v.77m-.25.12.11,0,.1,0,0,0m-2.28,0h0v-.79m.25.89-.11,0-.1,0h0m2.26-3.81v1.11m-.25-1,.11,0,.1,0,0,0m-2.28,1.11V42.83m.25.1-.11,0-.1,0,0,0m0,3,0,.37.13.37.07.15m1.78,0H37.71m2-.89-.06.37-.12.37-.07.15m0-1.78.18.43.07.46m0-1.89v1.89m-2.28,0V43.94m.25,1-.18.43-.07.46m2-2.9H37.71m0,0-.18.48-.07.51v0m0,0,0,.21,0,.21.06.21.07.2,0,.09,0,.08m1.78,0H37.71m2-1-.06.42-.12.41-.07.17m0-2,.18.48.07.51v0M16.55,46.62l.08.1m0,0h.89m0,0,.3,0,.38,0,.39,0m0,0h.05l.34-.05.3,0h.12m-2.77.22.18,0,.3,0,.26,0m-.17-3.81.35,0,.42-.05.22,0m-.44,3.87.15,0,.41,0h.21m-.74-3.6L18,43l.17.12.18.14.16.18.14.19m-.83,2.93.09,0,.19-.11.18-.14.18-.16.14-.18.12-.21.11-.21m1.39-1,0-.1,0-.11-.05-.1L20,44.06l-.07-.16-.07-.12-.07-.11,0-.07m0,0-.27-.37-.3-.38-.12-.15m-.88,0h.88m-.46.9-.21-.37-.16-.38,0-.15m1.11,1.78-.36-.42-.31-.46h0m.18,1.89.07-.23.05-.25,0-.24v-.25l-.06-.25L18.82,44l-.09-.22-.12-.21m-.09,2.9h.88m0,0,.14-.23.14-.25.13-.25.1-.26v0m0,0,.06-.11.07-.21.05-.21,0-.1,0-.11,0-.11,0-.16m-.88,0h.88m-1.39,1,.17-.42.23-.43.11-.16m-.78,2,0-.23.05-.25.07-.25.11-.26v0m18.67,5.22V46.62m0-3.83V26.37m0-10.93V11.7m-25.39,0v39m25.2-40v-.38m-25,0v.38m62,1.52L37.46,15.44m1,12,36.87-3.23M39.74,46h1m-3.3,0h0m0-2.54h0m3.3,0h-1m0-.63v0m-2.26,0,0,0m2.28,3.83v0m-2.28,0,0,0"/><path class="cls-1" d="M12.1,84.08l.11-.85.16-.85.21-.84.26-.81.32-.8.37-.77L14,78.4l.48-.71L15,77l.58-.63.6-.62.65-.56.69-.51.72-.48.76-.41.78-.37.81-.31.81-.27.85-.19.84-.14.85-.09.86,0,.87,0,.84.09.87.14.83.19.83.27.79.31.78.37.75.41.73.48.68.51.66.56.6.62.58.63.51.69.49.71.43.76.37.77.32.8.28.81.21.84.14.85.11.85Zm25.33,2-.11.84-.14.85-.21.85-.28.81-.32.79L36,91l-.43.74-.49.72-.51.69-.58.63-.6.62-.66.56-.68.52-.73.47-.75.41-.78.37-.79.31-.83.27-.83.19-.87.14-.84.09-.87,0-.86,0-.85-.09-.84-.14-.85-.19-.81-.27-.81-.31L19,96.37,18.2,96l-.72-.47L16.79,95l-.65-.56-.6-.62L15,93.16l-.51-.69L14,91.75,13.53,91l-.37-.78-.32-.79-.26-.81-.21-.85-.16-.85-.11-.84m0,0h.21m0-2H12.1m0,0v0l0,.17v1.49l0,.19v.11m25.11,0h.22m0,0v-.48l0-.32v-.65l0-.26v-.29h0m0,0h-.22M36.63,89l.23-.83.2-.82.12-.85.07-.85,0-.84L37.21,84l-.1-.84L37,82.28l-.23-.83-.26-.81-.34-.78-.39-.78-.44-.72-.47-.7L34.29,77l-.59-.64-.61-.58-.66-.55-.68-.51L31,74.27l-.75-.41-.78-.35-.79-.3L27.87,73,27,72.79l-.85-.12-.84-.07-.85,0-.86,0-.85.11L22,72.9l-.83.22-.81.29-.78.31-.75.39-.75.44-.7.48-.67.53-.64.58-.58.62-.54.65-.52.69-.44.72-.4.76-.36.77-.29.8-.23.83-.2.83-.12.84-.07.85v.85l0,.86.11.85.16.82.23.83.28.81.32.78.39.78.44.72.47.71.53.67.58.63.62.58.65.55.69.51.72.44.76.41.78.35.79.3.83.23.83.19.85.13.84.07H25l.86,0,.85-.1.83-.16L28.4,97l.81-.28.77-.32.78-.39.72-.44.71-.48.67-.53.63-.58.59-.62.54-.65.51-.69.44-.72.41-.76.35-.77Zm38.66-3.93V84l0-.56,0-.53v-.51l0-.48,0-.46V81l-.06-.37,0-.34L75,80l0-.21,0-.18,0-.12,0-.05h0l-.06.05,0,.12,0,.18-.06.21,0,.28,0,.34,0,.37,0,.4v.46l0,.48,0,.51v.53l0,.56v2.26l0,.56v.53l0,.51,0,.48v.46l0,.4,0,.37,0,.34,0,.28.06.21,0,.18,0,.11.06.07h0l0-.07,0-.11,0-.18,0-.21,0-.28,0-.34.06-.37v-.4l0-.46,0-.48V87.3l0-.53,0-.56V85.08Zm0,0V83.34l0-.57,0-.53,0-.51,0-.48,0-.44,0-.38,0-.36,0-.31,0-.25-.06-.2,0-.14-.05-.09-.06,0-.05,0,0,.09-.06.14-.05.2,0,.25,0,.31-.05.36,0,.38,0,.44,0,.48,0,.51,0,.53,0,.57,0,.56v2.36l0,.57,0,.56,0,.53,0,.51,0,.48,0,.44,0,.39.05.35,0,.3,0,.26.05.2.06.14,0,.09.05,0,.06,0L74.9,91l0-.14.06-.2,0-.26,0-.3,0-.35,0-.39,0-.44,0-.48,0-.51,0-.53,0-.56V85.08ZM36,91.11h0m0-12.06h0M17.29,101.34l.08,0,.07,0,0,0h0m-3.3-1.9,0,0h0l.07,0,.11.05m.44-1.87,1,.55m-1-.55L14,99.26m.39.42h0l-.1-.08-.09-.1-.09-.11L14,99.26m1,.56-.3,0-.26-.11m0,0,.12.07.14.09.16.09L15,100l.19.1.21.12.22.13.21.12m0-2.15,1.91,1.11m-1.91-1.11L15,99.82m.87.69-.35-.23-.34-.28L15,99.82m1.91,1.1-.41-.13-.38-.15-.13-.06-.12-.07m0,0,.21.13.21.12.21.12.2.11.17.1.16.09.14.09.13.07m.56.12h-.3l-.26-.11M18.68,100l-.83,1.44m-.12-2,.95.55m-.95-.55-.83,1.45m.39.42,0,0-.19-.17-.16-.23M14.43,70.48l-.11,0-.07,0h0l0,0m3.3-1.9h0l0,0-.07,0-.08,0m1.39,1.32-.95.55m.95-.55-.83-1.44m-.56.12,0,0,.11,0,.14,0,.12,0h.16m-1,.54.16-.24.23-.18m0,0-.13.07L17,69l-.16.09-.17.1-.2.11-.21.12-.21.13-.21.12m0,0-.21.12-.22.13-.21.1-.19.13-.18.1-.16.09-.14.09-.12.07m1.39,1.32-1,.55M14,70.9l.16-.24.23-.18m.44,1.87L14,70.9m.39-.42,0,0,.25-.09.28,0m0,0,.3-.28.34-.27.1-.07.13-.07m0,2.15L15,70.34m2.74.35L15.82,71.8m1.91-1.11-.83-1.45m-1,.41.37-.19.42-.15.25-.07m-.14,25.89h0l0,0,.09,0m-1.15,2-.07,0,0,0,0,0m4.13-.25.1.07L20,97,20,97l0,0v0m.07.21,0,0,0,.11M18.93,99h-.06l-.05,0-.09,0-.12-.07m.56.12h0l.11,0M16.92,95.2l-.09,0-.11,0h-.1l-.13,0,0,0h-.05m-.88,1.54.88-1.54m-.62,2L15.63,97l-.09-.21,0-.09m1.41-1.54.08.07.13.07.16.08.15.1.2.11.19.1.2.13.21.12m-1.08-.34-.09-.24-.15-.2M17.11,98l-.21-.12-.21-.12-.2-.11-.17-.1-.18-.11L16,97.3l-.12-.07-.11,0m.51,0-.26,0-.25,0m1.39-1.54.3.06.41.1.37.18m-2,1.2.88-1.54m-.88,1.54.19.23.29.3.35.24m0,0,.21.13.21.12.22.12.21.11.17.12.18.09.16.09.14.09M17.11,98l.07,0,.37.16.42.1.22,0m0-2.29.23.12.21.13.21.12.2.12.19.11.18.1.15.09.15.07M18.24,96l.07,0,.33.25.3.32.13.16m.23,2.18.88-1.53m0,0,0-.09,0-.07-.05-.07L20,97.09,19.93,97l-.07,0-.07-.05,0,0v0m0,0-.27-.08-.3,0h-.12m-.88,1.53.88-1.53m-.46,2.08-.21-.18-.16-.24,0-.13m1.11.65h-.36l-.31-.1h0m1.46-25.7h0l0,0,0,0-.09,0m-1.12-2,.07,0,.05,0h0m-1.86,3.68-.1.07-.09.06-.07,0,0,0h0m-.23,0h0l-.1,0m-.76-1.89v0h0l.05,0,.09,0,.13-.07m-.39.42,0,0,0,.1m4.4-.21.09,0,.06-.07.05-.11.05-.1,0-.06v0m-.88-1.53.88,1.53m-1.39-1.53.17-.06.23,0,.11,0m.61,2-.08.06-.13.08-.16.07-.15.11-.18.11-.21.1-.2.12-.21.13m.81-.78.28.06.23-.06M17.44,72l.22-.12.21-.12.19-.11.18-.11.18-.08.14-.09.12-.07.11-.07m-.27.46.09-.27.18-.18h0m.61,2-.17.25-.3.28-.34.25m-.07-2.29.88,1.51m-.88-1.51-.3,0-.39.11-.39.17m0,0-.21.13-.21.12-.21.12-.21.13-.18.1-.17.11-.16.09-.14.07M17.44,72l-.05,0-.33.26-.3.3-.13.18m2,1.2-.23.12-.21.13-.21.12-.19.1-.2.13-.18.09-.15.1-.15.07M18.59,74l-.07,0-.39.16-.4.11-.21,0m-2-.89L16.39,75m0,0h.1l.09,0h.09l.07,0,.14,0,.07,0,.09,0,0,0m0,0,.22-.17.17-.25.06-.12m-.89-1.52.89,1.52M16,72.88l.24-.09.3,0,.14,0m-1.12.63.17-.3.25-.22,0,0m58.84,6.17H36m0,12.06H74.79M17.5,101.46h.35M14,99.26l.16.3m2-2.15-.5.86m1.66-2.89,0,.07m2.19,1.27,0-.07m-1.65,2.89.49-.86M14.2,70.6l-.16.3m3.81-2.2H17.5m.88,2.78-.49-.86m1.65,2.89,0-.07m-2.19,1.27,0,.07m-1.66-2.89.5.86m.58,22.38-.23,0m-1,1.69.09.23m4.51.16L20.07,97M18.93,99l.24,0m.9-25.84.07-.21m-1-1.71-.24,0M16.53,75l.23,0m-1.13-2-.09.23"/><path class="cls-3" d="M12.1,84.08l.11-.85.16-.85.21-.84.26-.81.32-.8.37-.77L14,78.4l.48-.71L15,77l.58-.63.6-.62.65-.56.69-.51.72-.48.76-.41.78-.37.81-.31.81-.27.85-.19.84-.14.85-.09.86,0,.87,0,.84.09.87.14.83.19.83.27.79.31.78.37.75.41.73.48.68.51.66.56.6.62.58.63.51.69.49.71.43.76.37.77.32.8.28.81.21.84.14.85.11.85Zm25.33,2-.11.84-.14.85-.21.85-.28.81-.32.79L36,91l-.43.74-.49.72-.51.69-.58.63-.6.62-.66.56-.68.52-.73.47-.75.41-.78.37-.79.31-.83.27-.83.19-.87.14-.84.09-.87,0-.86,0-.85-.09-.84-.14-.85-.19-.81-.27-.81-.31L19,96.37,18.2,96l-.72-.47L16.79,95l-.65-.56-.6-.62L15,93.16l-.51-.69L14,91.75,13.53,91l-.37-.78-.32-.79-.26-.81-.21-.85-.16-.85-.11-.84m0,0h.21m0-2H12.1m0,0v0l0,.17v1.49l0,.19v.11m25.11,0h.22m0,0v-.48l0-.32v-.65l0-.26v-.29h0m0,0h-.22M36.63,89l.23-.83.2-.82.12-.85.07-.85,0-.84L37.21,84l-.1-.84L37,82.28l-.23-.83-.26-.81-.34-.78-.39-.78-.44-.72-.47-.7L34.29,77l-.59-.64-.61-.58-.66-.55-.68-.51L31,74.27l-.75-.41-.78-.35-.79-.3L27.87,73,27,72.79l-.85-.12-.84-.07-.85,0-.86,0-.85.11L22,72.9l-.83.22-.81.29-.78.31-.75.39-.75.44-.7.48-.67.53-.64.58-.58.62-.54.65-.52.69-.44.72-.4.76-.36.77-.29.8-.23.83-.2.83-.12.84-.07.85v.85l0,.86.11.85.16.82.23.83.28.81.32.78.39.78.44.72.47.71.53.67.58.63.62.58.65.55.69.51.72.44.76.41.78.35.79.3.83.23.83.19.85.13.84.07H25l.86,0,.85-.1.83-.16L28.4,97l.81-.28.77-.32.78-.39.72-.44.71-.48.67-.53.63-.58.59-.62.54-.65.51-.69.44-.72.41-.76.35-.77Zm38.66-3.93V84l0-.56,0-.53v-.51l0-.48,0-.46V81l-.06-.37,0-.34L75,80l0-.21,0-.18,0-.12,0-.05h0l-.06.05,0,.12,0,.18-.06.21,0,.28,0,.34,0,.37,0,.4v.46l0,.48,0,.51v.53l0,.56v2.26l0,.56v.53l0,.51,0,.48v.46l0,.4,0,.37,0,.34,0,.28.06.21,0,.18,0,.11.06.07h0l0-.07,0-.11,0-.18,0-.21,0-.28,0-.34.06-.37v-.4l0-.46,0-.48V87.3l0-.53,0-.56V85.08Zm0,0V83.34l0-.57,0-.53,0-.51,0-.48,0-.44,0-.38,0-.36,0-.31,0-.25-.06-.2,0-.14-.05-.09-.06,0-.05,0,0,.09-.06.14-.05.2,0,.25,0,.31-.05.36,0,.38,0,.44,0,.48,0,.51,0,.53,0,.57,0,.56v2.36l0,.57,0,.56,0,.53,0,.51,0,.48,0,.44,0,.39.05.35,0,.3,0,.26.05.2.06.14,0,.09.05,0,.06,0L74.9,91l0-.14.06-.2,0-.26,0-.3,0-.35,0-.39,0-.44,0-.48,0-.51,0-.53,0-.56V85.08ZM36,91.11h0m0-12.06h0M17.29,101.34l.08,0,.07,0,0,0h0m-3.3-1.9,0,0h0l.07,0,.11.05m.44-1.87,1,.55m-1-.55L14,99.26m.39.42h0l-.1-.08-.09-.1-.09-.11L14,99.26m1,.56-.3,0-.26-.11m0,0,.12.07.14.09.16.09L15,100l.19.1.21.12.22.13.21.12m0-2.15,1.91,1.11m-1.91-1.11L15,99.82m.87.69-.35-.23-.34-.28L15,99.82m1.91,1.1-.41-.13-.38-.15-.13-.06-.12-.07m0,0,.21.13.21.12.21.12.2.11.17.1.16.09.14.09.13.07m.56.12h-.3l-.26-.11M18.68,100l-.83,1.44m-.12-2,.95.55m-.95-.55-.83,1.45m.39.42,0,0-.19-.17-.16-.23M14.43,70.48l-.11,0-.07,0h0l0,0m3.3-1.9h0l0,0-.07,0-.08,0m1.39,1.32-.95.55m.95-.55-.83-1.44m-.56.12,0,0,.11,0,.14,0,.12,0h.16m-1,.54.16-.24.23-.18m0,0-.13.07L17,69l-.16.09-.17.1-.2.11-.21.12-.21.13-.21.12m0,0-.21.12-.22.13-.21.1-.19.13-.18.1-.16.09-.14.09-.12.07m1.39,1.32-1,.55M14,70.9l.16-.24.23-.18m.44,1.87L14,70.9m.39-.42,0,0,.25-.09.28,0m0,0,.3-.28.34-.27.1-.07.13-.07m0,2.15L15,70.34m2.74.35L15.82,71.8m1.91-1.11-.83-1.45m-1,.41.37-.19.42-.15.25-.07m-.14,25.89h0l0,0,.09,0m-1.15,2-.07,0,0,0,0,0m4.13-.25.1.07L20,97,20,97l0,0v0m.07.21,0,0,0,.11M18.93,99h-.06l-.05,0-.09,0-.12-.07m.56.12h0l.11,0M16.92,95.2l-.09,0-.11,0h-.1l-.13,0,0,0h-.05m-.88,1.54.88-1.54m-.62,2L15.63,97l-.09-.21,0-.09m1.41-1.54.08.07.13.07.16.08.15.1.2.11.19.1.2.13.21.12m-1.08-.34-.09-.24-.15-.2M17.11,98l-.21-.12-.21-.12-.2-.11-.17-.1-.18-.11L16,97.3l-.12-.07-.11,0m.51,0-.26,0-.25,0m1.39-1.54.3.06.41.1.37.18m-2,1.2.88-1.54m-.88,1.54.19.23.29.3.35.24m0,0,.21.13.21.12.22.12.21.11.17.12.18.09.16.09.14.09M17.11,98l.07,0,.37.16.42.1.22,0m0-2.29.23.12.21.13.21.12.2.12.19.11.18.1.15.09.15.07M18.24,96l.07,0,.33.25.3.32.13.16m.23,2.18.88-1.53m0,0,0-.09,0-.07-.05-.07L20,97.09,19.93,97l-.07,0-.07-.05,0,0v0m0,0-.27-.08-.3,0h-.12m-.88,1.53.88-1.53m-.46,2.08-.21-.18-.16-.24,0-.13m1.11.65h-.36l-.31-.1h0m1.46-25.7h0l0,0,0,0-.09,0m-1.12-2,.07,0,.05,0h0m-1.86,3.68-.1.07-.09.06-.07,0,0,0h0m-.23,0h0l-.1,0m-.76-1.89v0h0l.05,0,.09,0,.13-.07m-.39.42,0,0,0,.1m4.4-.21.09,0,.06-.07.05-.11.05-.1,0-.06v0m-.88-1.53.88,1.53m-1.39-1.53.17-.06.23,0,.11,0m.61,2-.08.06-.13.08-.16.07-.15.11-.18.11-.21.1-.2.12-.21.13m.81-.78.28.06.23-.06M17.44,72l.22-.12.21-.12.19-.11.18-.11.18-.08.14-.09.12-.07.11-.07m-.27.46.09-.27.18-.18h0m.61,2-.17.25-.3.28-.34.25m-.07-2.29.88,1.51m-.88-1.51-.3,0-.39.11-.39.17m0,0-.21.13-.21.12-.21.12-.21.13-.18.1-.17.11-.16.09-.14.07M17.44,72l-.05,0-.33.26-.3.3-.13.18m2,1.2-.23.12-.21.13-.21.12-.19.1-.2.13-.18.09-.15.1-.15.07M18.59,74l-.07,0-.39.16-.4.11-.21,0m-2-.89L16.39,75m0,0h.1l.09,0h.09l.07,0,.14,0,.07,0,.09,0,0,0m0,0,.22-.17.17-.25.06-.12m-.89-1.52.89,1.52M16,72.88l.24-.09.3,0,.14,0m-1.12.63.17-.3.25-.22,0,0m58.84,6.17H36m0,12.06H74.79M17.5,101.46h.35M14,99.26l.16.3m2-2.15-.5.86m1.66-2.89,0,.07m2.19,1.27,0-.07m-1.65,2.89.49-.86M14.2,70.6l-.16.3m3.81-2.2H17.5m.88,2.78-.49-.86m1.65,2.89,0-.07m-2.19,1.27,0,.07m-1.66-2.89.5.86m.58,22.38-.23,0m-1,1.69.09.23m4.51.16L20.07,97M18.93,99l.24,0m.9-25.84.07-.21m-1-1.71-.24,0M16.53,75l.23,0m-1.13-2-.09.23"/><polygon class="cls-4" points="28.02 45.57 26.38 45.64 26.85 45.62 27.32 45.62 27.8 45.59 28.02 45.57"/><path class="cls-4" d="M28,45.57l-.22,0-.48,0h-.47l-.46,0Zm-1.63.07h0"/><path class="cls-1" d="M37.27,61.75h-.58V55.67h1.16v6.08Zm0-2.71H12.37v-.66h24.9Zm-24.9,2.71h-.58V55.67H13v6.08Z"/><path class="cls-1" d="M87.82,80.06v.59H81.75V79.48h6.07Zm-2.7,0v10h-.66v-10Zm2.7,10v.58H81.75V89.48h6.07Z"/><path class="cls-1" d="M82.36,83.23V82a2.26,2.26,0,0,0,0-.43,1,1,0,0,0-.13-.37.8.8,0,0,0-.27-.24.88.88,0,0,0-.41-.09.74.74,0,0,0-.46.14.7.7,0,0,0-.28.38,2.41,2.41,0,0,0-.08.69v1.11Zm-2.21,0v-1a2.7,2.7,0,0,0-.05-.6.68.68,0,0,0-.24-.36.7.7,0,0,0-.42-.12.82.82,0,0,0-.42.11.6.6,0,0,0-.25.33,3,3,0,0,0-.06.72v1Zm2.77.63H78.15V82.07a2.19,2.19,0,0,1,.14-.88,1.14,1.14,0,0,1,.45-.52,1.21,1.21,0,0,1,.63-.18,1.07,1.07,0,0,1,.57.16,1.2,1.2,0,0,1,.44.5,1.26,1.26,0,0,1,.43-.66,1.19,1.19,0,0,1,.72-.23,1.45,1.45,0,0,1,.63.13,1.28,1.28,0,0,1,.45.36,1.46,1.46,0,0,1,.23.52,2.84,2.84,0,0,1,.08.77Zm-3.56,1.73L82.07,88a2.27,2.27,0,0,0,.29-.46,1.68,1.68,0,0,0,.1-.6,1.49,1.49,0,0,0-.5-1.16,2,2,0,0,0-1.41-.46,2.54,2.54,0,0,0-1.19.27m-.33.27a2,2,0,0,0-.34.53,1.46,1.46,0,0,0-.08.54,1.56,1.56,0,0,0,.48,1.17,2,2,0,0,0,1.44.47,2.62,2.62,0,0,0,.67-.08,2.1,2.1,0,0,0,.54-.21Zm-.45-.4L78,84.92l.28-.32.64.57a3.18,3.18,0,0,1,.72-.38,3,3,0,0,1,.92-.13,2.78,2.78,0,0,1,1.31.3,2,2,0,0,1,.87.83A2.35,2.35,0,0,1,83,86.92a2.55,2.55,0,0,1-.12.81,2.94,2.94,0,0,1-.38.66l.62.55-.28.32-.64-.57a3.78,3.78,0,0,1-.83.42,2.57,2.57,0,0,1-.83.11,2.9,2.9,0,0,1-1.31-.29,2.09,2.09,0,0,1-.87-.82,2.48,2.48,0,0,1-.29-1.18,2.44,2.44,0,0,1,.11-.76A2.9,2.9,0,0,1,78.58,85.46Z"/><path class="cls-1" d="M27.25,55.31h1.62L28.37,54c-.15-.4-.26-.74-.34-1a5.7,5.7,0,0,1-.26.92Zm-1.39,2L27.7,52.5h.69l1.95,4.78h-.72l-.55-1.45h-2l-.52,1.45Zm-1.23-3.57-2.41,2.71a1.51,1.51,0,0,0,.46.29,1.64,1.64,0,0,0,.6.11,1.52,1.52,0,0,0,1.16-.5,2,2,0,0,0,.46-1.41,2.56,2.56,0,0,0-.27-1.2m-.27-.33a1.93,1.93,0,0,0-.53-.33,1.45,1.45,0,0,0-.54-.09,1.55,1.55,0,0,0-1.17.48,2,2,0,0,0-.47,1.45,3.18,3.18,0,0,0,.07.66,3,3,0,0,0,.22.55Zm.4-.45.54-.6.32.27-.57.64a3,3,0,0,1,.38.73,2.92,2.92,0,0,1,.13.92,2.81,2.81,0,0,1-.3,1.31,2,2,0,0,1-.83.86,2.25,2.25,0,0,1-1.13.3,2.35,2.35,0,0,1-.82-.13,3,3,0,0,1-.65-.37l-.55.61L21,57.2l.58-.65a3.9,3.9,0,0,1-.43-.83,3.21,3.21,0,0,1,.19-2.13,2,2,0,0,1,.82-.88,2.6,2.6,0,0,1,1.94-.18A3.27,3.27,0,0,1,24.76,52.93Z"/></g></g></svg>