<svg xmlns="http://www.w3.org/2000/svg" viewBox="0 0 106.47 115.17"><defs><style>.cls-1{fill:none;stroke:#383535;stroke-miterlimit:22.93;stroke-width:0.22px;}</style></defs><g id="Layer_2" data-name="Layer 2"><g id="Layer_1-2" data-name="Layer 1"><path class="cls-1" d="M1.91,99.21a.6.6,0,0,1,0,1.2.6.6,0,0,1,0-1.2Zm0,13.17a.6.6,0,0,1,0,1.2.6.6,0,0,1,0-1.2Zm4.66-11.64H3.65v4Q5.09,102.81,6.57,100.74Zm-6.46-3H3.65v2.06H7.21C32.66,64.08,66.48,7,106,.13l.39,3.12C64.5,10.67,29.41,74.77,3.65,109v6H.11Z"/></g></g></svg>