<svg xmlns="http://www.w3.org/2000/svg" viewBox="0 0 127.63 107.18"><defs><style>.cls-1{fill:none;stroke:#383535;stroke-miterlimit:22.93;stroke-width:0.57px;}</style></defs><g id="Layer_2" data-name="Layer 2"><g id="Layer_1-2" data-name="Layer 1"><path class="cls-1" d="M.28,106.89H2.83V88.62l1-4.59,1.87-4.6L8.6,74.55l3-2.87,3.3-3.3L82.69,14.6a86,86,0,0,1,8.28-5,73.69,73.69,0,0,1,22.14-6.76h14.24V.28H113.11A75.31,75.31,0,0,0,100,3.43c-6.45,2.19-13.52,5-18.9,9.19L13.3,66.4l-.24.17L10.18,69,7.45,71.82,4.87,75.41,3,78.86,1.57,82.73.85,85.6.28,88Z"/></g></g></svg>